<svg width="162" height="162" viewBox="0 0 162 162" fill="none" xmlns="http://www.w3.org/2000/svg">
<rect width="162" height="162" rx="30" fill="#F7C83E"/>
<path d="M70.1425 62.5458C71.2823 63.3441 72.0958 64.3038 72.3495 65.6931C72.3603 66.1012 72.3643 66.5048 72.3593 66.9126C72.3586 67.0224 72.3579 67.1321 72.3572 67.2452C72.3553 67.5147 72.3525 67.7841 72.3495 68.0535C72.4905 68.0444 72.6315 68.0353 72.7768 68.0259C74.2713 67.9702 75.3206 68.1202 76.4579 69.1287C77.6876 70.4252 77.7772 71.6873 77.7388 73.4039C77.7366 73.5859 77.7345 73.7678 77.7323 73.9553C77.7268 74.401 77.719 74.8466 77.7092 75.2923C77.8502 75.2832 77.9912 75.274 78.1365 75.2646C79.6277 75.2091 80.6897 75.3536 81.8177 76.3729C82.9857 77.6215 83.2514 78.9197 83.2477 80.6003C83.248 80.7198 83.2484 80.8393 83.2487 80.9625C83.2497 81.3614 83.2496 81.7603 83.2495 82.1593C83.25 82.446 83.2505 82.7328 83.2511 83.0195C83.2525 83.798 83.2528 84.5765 83.2529 85.355C83.2531 85.8425 83.2534 86.3301 83.2538 86.8176C83.2553 88.5219 83.2559 90.2263 83.2558 91.9306C83.2557 93.5131 83.2574 95.0956 83.2598 96.6781C83.2619 98.0408 83.2628 99.4034 83.2627 100.766C83.2626 101.578 83.2631 102.39 83.2647 103.202C83.2663 103.968 83.2663 104.734 83.2651 105.499C83.265 105.778 83.2653 106.057 83.2663 106.335C83.2709 107.753 83.2319 109.153 83.0869 110.565C83.0747 110.684 83.0626 110.803 83.0501 110.925C82.5485 115.345 80.1615 119.693 76.671 122.475C75.6584 123.253 74.5996 123.97 73.5428 124.686C72.6937 125.263 71.8519 125.849 71.0095 126.436C69.5681 127.438 68.124 128.435 66.6744 129.426C66.4572 129.574 66.4572 129.574 66.2356 129.726C65.7581 130.052 65.2803 130.378 64.8025 130.704C64.6494 130.809 64.4964 130.913 64.3387 131.021C64.1963 131.118 64.0539 131.215 63.9071 131.315C63.7795 131.402 63.6519 131.489 63.5205 131.579C62.9175 131.976 62.5142 131.993 61.7876 131.943C61.2298 131.684 61.0293 131.516 60.6841 130.999C60.6256 130.637 60.6256 130.637 60.6152 130.232C60.6089 130.099 60.6026 129.967 60.5961 129.83C60.7917 128.931 61.7247 128.432 62.4379 127.931C62.5329 127.864 62.6279 127.797 62.7258 127.728C63.633 127.091 64.5491 126.468 65.4653 125.845C66.6429 125.043 67.8128 124.231 68.9819 123.417C69.7705 122.868 70.5607 122.322 71.3548 121.782C75.3748 119.042 78.3776 116.033 79.3659 111.084C79.6369 109.541 79.6444 108.032 79.6392 106.471C79.6393 106.177 79.6396 105.883 79.6401 105.589C79.6408 104.796 79.6396 104.003 79.638 103.211C79.6366 102.38 79.6369 101.549 79.637 100.718C79.6368 99.3244 79.6355 97.931 79.6333 96.5376C79.6308 94.926 79.63 93.3144 79.6301 91.7027C79.6302 89.9852 79.6291 88.2677 79.6277 86.5502C79.6274 86.0553 79.6272 85.5605 79.6272 85.0657C79.627 84.2899 79.6261 83.5142 79.6245 82.7384C79.624 82.4534 79.6238 82.1684 79.6239 81.8833C79.624 81.4953 79.6231 81.1073 79.622 80.7192C79.6222 80.6057 79.6224 80.4921 79.6227 80.3751C79.6203 79.8955 79.5965 79.5279 79.4432 79.069C78.9144 78.9486 78.9144 78.9486 78.3398 78.9117C77.9984 79.1515 77.8829 79.2954 77.8079 79.7075C77.808 79.8326 77.8081 79.9576 77.8082 80.0864C77.8072 80.2303 77.8061 80.3741 77.805 80.5223C77.8062 80.6797 77.8074 80.8372 77.8087 80.9994C77.8081 81.1655 77.8075 81.3316 77.8069 81.5028C77.8059 81.8639 77.8059 82.2251 77.8069 82.5862C77.8083 83.1576 77.8067 83.729 77.8043 84.3004C77.798 85.9251 77.7978 87.5499 77.7981 89.1746C77.7981 90.1679 77.7951 91.1612 77.7904 92.1546C77.7887 92.7178 77.7906 93.281 77.7925 93.8442C77.7911 94.1895 77.7895 94.5348 77.7877 94.8801C77.7893 95.0369 77.7908 95.1937 77.7924 95.3553C77.7852 96.0418 77.7757 96.4287 77.4087 97.0235C76.8567 97.5248 76.4364 97.543 75.7116 97.536C75.0818 97.441 74.8231 97.1598 74.3988 96.6938C74.2052 96.1624 74.2202 95.6378 74.2183 95.0767C74.2172 94.8737 74.2161 94.6707 74.215 94.4616C74.2146 94.237 74.2142 94.0124 74.2138 93.7877C74.2128 93.5509 74.2117 93.3141 74.2106 93.0774C74.2083 92.5677 74.2064 92.0581 74.2049 91.5485C74.2025 90.7432 74.1987 89.938 74.1947 89.1327C74.1835 86.843 74.174 84.5532 74.166 82.2635C74.1615 80.9987 74.1559 79.7339 74.1492 78.4691C74.1449 77.668 74.1421 76.8669 74.1403 76.0658C74.1389 75.5683 74.1362 75.0709 74.133 74.5735C74.1319 74.3422 74.1312 74.1109 74.1311 73.8796C74.131 73.5649 74.1287 73.2501 74.1263 72.9353C74.1253 72.6706 74.1253 72.6706 74.1243 72.4006C74.1252 71.9627 74.1252 71.9627 73.7682 71.6729C73.2953 71.6205 73.2953 71.6205 72.8224 71.6729C72.4679 71.9603 72.4679 71.9603 72.468 72.3801C72.4683 72.6302 72.4683 72.6302 72.4685 72.8854C72.4679 73.0764 72.4673 73.2675 72.4666 73.4644C72.4675 73.6772 72.4684 73.8901 72.4693 74.103C72.4692 74.3263 72.4688 74.5496 72.4684 74.7729C72.4676 75.2546 72.4678 75.7362 72.4687 76.2178C72.4699 76.9796 72.4682 77.7414 72.4659 78.5032C72.46 80.6697 72.4571 82.8362 72.459 85.0027C72.4599 86.1987 72.4581 87.3947 72.4532 88.5907C72.4503 89.3477 72.4508 90.1046 72.4539 90.8616C72.4549 91.3333 72.4527 91.8049 72.4496 92.2766C72.4488 92.4949 72.4494 92.7133 72.4514 92.9316C72.4672 94.7864 72.4672 94.7864 71.9689 95.405C71.4069 95.8801 71.0613 95.9697 70.3168 95.9629C69.7239 95.863 69.4484 95.5488 69.039 95.1202C68.8562 94.5725 68.8588 94.0827 68.8596 93.5132C68.8592 93.3968 68.8587 93.2804 68.8583 93.1605C68.857 92.7694 68.8568 92.3784 68.8565 91.9873C68.8558 91.7074 68.855 91.4275 68.8541 91.1476C68.8523 90.5443 68.851 89.941 68.85 89.3377C68.8483 88.3843 68.8451 87.4309 68.8416 86.4776C68.8318 83.7664 68.8233 81.0552 68.8181 78.3441C68.8152 76.8471 68.8107 75.3502 68.8042 73.8532C68.8009 73.0607 68.7985 72.2681 68.7981 71.4756C68.7978 70.7305 68.7953 69.9856 68.7911 69.2406C68.79 68.9667 68.7897 68.6928 68.7902 68.419C68.7908 68.046 68.7885 67.6731 68.7855 67.3001C68.7869 67.1364 68.7869 67.1364 68.7882 66.9694C68.782 66.525 68.7671 66.2292 68.5142 65.8557C68.2322 65.6457 68.2322 65.6457 67.7582 65.7324C67.3242 65.8047 67.3242 65.8047 67.1474 66.0078C67.1312 66.3383 67.1263 66.6693 67.1256 67.0001C67.1252 67.105 67.1247 67.2098 67.1242 67.3179C67.1229 67.6718 67.1227 68.0258 67.1225 68.3798C67.1218 68.6325 67.1209 68.8853 67.1201 69.138C67.1183 69.6837 67.117 70.2294 67.1159 70.7751C67.1143 71.638 67.1111 72.5009 67.1076 73.3638C67.0978 75.8181 67.0893 78.2724 67.0841 80.7267C67.0812 82.0811 67.0766 83.4355 67.0702 84.79C67.0669 85.507 67.0645 86.224 67.0641 86.941C67.0638 87.6159 67.0613 88.2908 67.0571 88.9656C67.056 89.2132 67.0556 89.4607 67.0562 89.7082C67.0568 90.0466 67.0545 90.3849 67.0515 90.7233C67.051 90.9125 67.0505 91.1018 67.0499 91.2967C66.9681 92.0021 66.7264 92.5272 66.2508 93.0548C65.714 93.3154 65.2041 93.318 64.6251 93.2318C64.0599 92.9742 63.8695 92.8085 63.5217 92.2876C63.4817 91.8774 63.4817 91.8774 63.4809 91.3748C63.4799 91.1844 63.4788 90.994 63.4777 90.7978C63.4781 90.5865 63.4785 90.3752 63.4789 90.1639C63.4782 89.9416 63.4774 89.7193 63.4764 89.497C63.4746 89.0181 63.4737 88.5392 63.4736 88.0603C63.4733 87.3032 63.4704 86.5462 63.4671 85.7891C63.4594 83.9085 63.4545 82.028 63.4512 80.1474C63.4486 78.6861 63.445 77.2249 63.4381 75.7636C63.4347 75.0109 63.4334 74.2582 63.4337 73.5055C63.4335 73.0372 63.4313 72.569 63.4285 72.1008C63.4276 71.8836 63.4275 71.6664 63.4283 71.4492C63.4293 71.1528 63.4271 70.8564 63.4247 70.56C63.4244 70.3941 63.4241 70.2282 63.4238 70.0572C63.3556 69.5665 63.2368 69.3488 62.8911 68.9977C62.497 68.8928 62.497 68.8928 62.1029 68.9977C61.6937 69.3838 61.6313 69.6147 61.5706 70.1792C61.5681 70.405 61.5682 70.6308 61.5703 70.8566C61.5692 71.0435 61.5692 71.0435 61.5681 71.2343C61.5663 71.6524 61.5678 72.0705 61.5693 72.4886C61.5687 72.7882 61.5678 73.0878 61.5668 73.3873C61.5649 74.0327 61.5645 74.6781 61.5652 75.3235C61.5663 76.3437 61.5638 77.3639 61.5608 78.3842C61.5548 80.55 61.5528 82.7158 61.5512 84.8817C61.5494 87.2192 61.547 89.5567 61.54 91.8942C61.5371 92.9086 61.5365 93.923 61.5376 94.9375C61.5379 95.5683 61.5362 96.1992 61.5339 96.8301C61.5333 97.1228 61.5335 97.4156 61.5345 97.7083C61.5359 98.1077 61.5343 98.5071 61.532 98.9065C61.5336 99.0806 61.5336 99.0806 61.5353 99.2582C61.5276 99.952 61.4218 100.388 60.9994 100.943C60.46 101.346 59.9202 101.315 59.2654 101.257C58.7364 101.041 58.5269 100.864 58.2224 100.381C57.9527 99.7134 57.9381 99.175 57.9436 98.4632C57.9428 98.328 57.9419 98.1928 57.941 98.0535C57.9395 97.7611 57.939 97.4687 57.9395 97.1764C57.9402 96.7133 57.938 96.2503 57.9351 95.7872C57.9283 94.6374 57.9265 93.4877 57.9246 92.3379C57.9228 91.3654 57.9191 90.3929 57.9128 89.4204C57.9107 88.9649 57.9114 88.5094 57.9121 88.0538C57.9106 87.7737 57.909 87.4936 57.9073 87.2135C57.9083 87.0875 57.9092 86.9614 57.9102 86.8315C57.9019 86.0734 57.8155 85.5355 57.3737 84.8915C57.0627 84.6754 56.7478 84.4648 56.4279 84.262C56.4131 87.7721 56.402 91.2821 56.3952 94.7921C56.392 96.4219 56.3875 98.0517 56.3803 99.6815C56.374 101.102 56.37 102.523 56.3685 103.943C56.3677 104.695 56.3658 105.447 56.3612 106.2C56.3569 106.908 56.3556 107.616 56.3566 108.324C56.3564 108.584 56.3551 108.843 56.3527 109.103C56.3496 109.458 56.3503 109.813 56.352 110.169C56.3512 110.467 56.3512 110.467 56.3503 110.77C56.4484 111.477 56.6557 111.843 57.0584 112.43C57.5054 112.692 57.5054 112.692 58.0043 112.833C58.6246 113.065 58.9182 113.184 59.3836 113.669C59.6179 114.254 59.6603 114.638 59.5807 115.263C59.2826 115.857 58.9837 116.19 58.4304 116.554C58.2941 116.645 58.1578 116.736 58.0174 116.83C57.7963 116.974 57.7963 116.974 57.5708 117.122C57.2552 117.332 56.9397 117.542 56.6243 117.753C56.4615 117.861 56.2987 117.969 56.131 118.081C55.3461 118.607 54.5718 119.148 53.7973 119.689C52.7071 120.448 51.6146 121.203 50.5164 121.951C49.2412 122.819 47.9736 123.698 46.7072 124.579C45.8507 125.174 44.993 125.768 44.132 126.357C43.1041 127.06 42.0807 127.77 41.058 128.481C39.9754 129.234 38.8927 129.986 37.8067 130.734C37.707 130.803 37.6074 130.871 37.5047 130.942C35.8635 132.07 35.8635 132.07 34.8313 131.943C34.3244 131.714 33.9988 131.535 33.7401 131.031C33.5603 130.467 33.5635 130.089 33.6785 129.504C34.0739 128.755 34.7992 128.343 35.4886 127.886C35.8044 127.676 36.1172 127.463 36.4298 127.248C36.931 126.905 37.4329 126.562 37.9354 126.22C38.8323 125.609 39.7237 124.99 40.6147 124.37C41.6275 123.666 42.6409 122.962 43.6591 122.265C44.8457 121.453 46.0262 120.633 47.2068 119.812C48.0814 119.204 48.9576 118.598 49.8366 117.997C50.1344 117.793 50.432 117.588 50.7297 117.383C50.9799 117.212 51.2304 117.04 51.4811 116.869C51.9222 116.567 52.3622 116.264 52.8022 115.961C52.9428 115.865 53.0835 115.77 53.2284 115.671C53.3576 115.581 53.4868 115.492 53.6199 115.4C53.794 115.28 53.794 115.28 53.9715 115.159C54.0538 115.089 54.1361 115.02 54.2209 114.948C54.2209 114.423 53.8315 114.068 53.5282 113.654C52.6422 112.124 52.7329 110.554 52.736 108.845C52.7348 108.545 52.7335 108.245 52.7319 107.944C52.7284 107.132 52.728 106.32 52.7283 105.508C52.7283 104.83 52.7269 104.152 52.7256 103.474C52.7226 101.875 52.7221 100.276 52.7232 98.6766C52.7242 97.026 52.7206 95.3755 52.7148 93.7249C52.71 92.3073 52.7082 90.8897 52.7088 89.4722C52.7091 88.6256 52.7082 87.7791 52.7044 86.9325C52.7009 86.1376 52.7011 85.3428 52.7044 84.5479C52.7049 84.2558 52.7041 83.9636 52.7018 83.6715C52.699 83.2737 52.701 82.8762 52.7042 82.4784C52.7022 82.3619 52.7003 82.2455 52.6982 82.1255C52.7039 81.803 52.7039 81.803 52.8022 81.2721C53.6346 80.6042 54.5021 80.6141 55.5313 80.6132C55.647 80.6112 55.7628 80.6093 55.882 80.6073C55.9965 80.607 56.111 80.6067 56.229 80.6064C56.3315 80.6058 56.4339 80.6051 56.5395 80.6044C57.0466 80.6581 57.5159 80.8144 58.0043 80.9574C58.0027 80.7438 58.0027 80.7438 58.0011 80.5259C57.9916 79.1786 57.9844 77.8313 57.9798 76.484C57.9773 75.7915 57.974 75.0989 57.9686 74.4064C57.9634 73.7371 57.9606 73.0678 57.9594 72.3984C57.9585 72.1441 57.9568 71.8897 57.9543 71.6354C57.9353 69.6796 58.0045 67.9689 59.423 66.4799C60.6462 65.3767 61.9327 65.3315 63.5217 65.3783C63.5878 65.2271 63.5878 65.2271 63.6553 65.0728C64.262 63.766 64.8837 62.872 66.2508 62.3196C67.572 61.901 68.8951 61.8949 70.1425 62.5458Z" fill="black"/>
<path d="M94.8196 51.641C95.765 52.3377 96.2393 53.2497 96.7017 54.3096C96.8325 54.3023 96.9633 54.295 97.0981 54.2875C98.5317 54.2415 99.5286 54.4309 100.672 55.3103C101.615 56.2326 102.061 57.177 102.083 58.5003C102.084 58.6114 102.084 58.7225 102.084 58.8369C102.087 59.0163 102.087 59.0163 102.089 59.1992C102.094 59.5916 102.097 59.984 102.099 60.3764C102.102 60.6496 102.105 60.9228 102.108 61.1959C102.116 61.9128 102.123 62.6297 102.129 63.3466C102.135 64.079 102.143 64.8114 102.151 65.5437C102.166 66.9792 102.179 68.4146 102.191 69.8501C102.311 69.8 102.431 69.7499 102.555 69.6983C103.966 69.1544 105.504 69.3479 106.896 69.8501C107.052 69.9537 107.207 70.0573 107.367 70.1641C107.414 70.5511 107.43 70.8989 107.427 71.2864C107.427 71.4033 107.428 71.5203 107.429 71.6408C107.431 72.035 107.429 72.429 107.428 72.8232C107.428 73.105 107.429 73.3869 107.43 73.6687C107.432 74.4365 107.432 75.2043 107.43 75.9721C107.429 76.7769 107.43 77.5816 107.431 78.3863C107.432 79.7404 107.43 81.0945 107.428 82.4486C107.426 84.0086 107.427 85.5687 107.429 87.1287C107.431 88.4703 107.432 89.8118 107.43 91.1534C107.43 91.9535 107.429 92.7537 107.431 93.5538C107.432 94.3087 107.431 95.0636 107.429 95.8185C107.428 96.0936 107.428 96.3686 107.429 96.6436C107.438 99.2665 107.093 101.622 106.112 104.071C106.2 104.112 106.288 104.154 106.379 104.197C108.126 105.106 109.727 106.407 111.339 107.532C112.052 108.03 112.767 108.524 113.484 109.016C114.497 109.71 115.505 110.412 116.513 111.115C117.617 111.885 118.724 112.652 119.836 113.411C120.977 114.19 122.113 114.976 123.247 115.765C123.398 115.871 123.55 115.976 123.706 116.085C124.115 116.37 124.524 116.656 124.933 116.943C125.046 117.021 125.158 117.1 125.274 117.181C126.212 117.841 126.212 117.841 126.345 118.356C126.434 119.147 126.435 119.457 126.031 120.151C125.529 120.58 125.277 120.681 124.645 120.755C123.749 120.637 122.999 120.011 122.277 119.503C122.117 119.393 122.117 119.393 121.955 119.28C121.588 119.025 121.222 118.769 120.855 118.513C120.563 118.309 120.27 118.105 119.977 117.901C119.511 117.577 119.046 117.253 118.58 116.928C117.719 116.328 116.858 115.731 115.993 115.138C114.812 114.327 113.637 113.508 112.462 112.689C111.506 112.023 110.548 111.36 109.587 110.701C108.957 110.269 108.33 109.832 107.704 109.394C107.543 109.281 107.382 109.168 107.216 109.052C106.899 108.83 106.582 108.608 106.266 108.385C105.5 107.849 104.738 107.342 103.916 106.896C103.821 106.987 103.726 107.078 103.628 107.172C101.656 109.012 99.2995 110.172 96.5841 110.399C95.8797 110.331 95.5149 110.088 95.0059 109.614C94.7346 109.085 94.6659 108.564 94.8196 107.995C95.3169 107.22 95.701 106.95 96.5889 106.74C96.7103 106.714 96.8316 106.688 96.9566 106.661C99.2323 106.094 101.167 104.993 102.42 102.934C103.314 101.367 103.775 99.9082 103.784 98.0961C103.785 97.9882 103.786 97.8804 103.787 97.7692C103.789 97.4099 103.79 97.0505 103.792 96.6912C103.793 96.4328 103.795 96.1744 103.796 95.9159C103.801 95.2158 103.804 94.5156 103.807 93.8155C103.811 93.0833 103.815 92.3511 103.819 91.6189C103.827 90.2329 103.834 88.847 103.841 87.4611C103.848 85.883 103.857 84.3049 103.866 82.7268C103.884 79.4811 103.9 76.2354 103.916 72.9896C103.272 73.4087 102.761 73.7435 102.348 74.4024C102.139 75.4204 102.164 76.4492 102.159 77.4849C102.157 77.6825 102.156 77.8802 102.154 78.0839C102.15 78.6231 102.147 79.1624 102.144 79.7017C102.14 80.2663 102.136 80.8309 102.132 81.3955C102.124 82.4634 102.117 83.5314 102.11 84.5993C102.102 85.8156 102.094 87.032 102.085 88.2483C102.067 90.7492 102.05 93.2501 102.034 95.7511C101.853 95.757 101.671 95.7628 101.484 95.7689C101.243 95.7792 101.001 95.7896 100.76 95.8001C100.641 95.8037 100.521 95.8072 100.399 95.8109C99.5122 95.8529 98.8785 96.0534 98.1464 96.5813C97.8653 96.9788 97.8247 97.3741 97.7408 97.8506C97.6053 98.4681 97.4988 98.87 97.1624 99.4106C96.4893 99.7976 95.8905 99.8348 95.1333 99.6755C94.6903 99.3317 94.4408 99.0742 94.1923 98.5766C94.0289 97.0567 94.3742 95.7208 95.2313 94.456C96.1508 93.3266 97.2008 92.7836 98.5838 92.4546C98.5707 87.9982 98.5558 83.5418 98.5387 79.0854C98.5308 77.0164 98.5236 74.9473 98.5176 72.8783C98.5125 71.0755 98.5062 69.2727 98.4987 67.47C98.4947 66.5149 98.4913 65.5598 98.4892 64.6047C98.4872 63.7066 98.4837 62.8086 98.4791 61.9106C98.4777 61.5801 98.4768 61.2497 98.4765 60.9192C98.476 60.4697 98.4736 60.0203 98.4706 59.5708C98.4711 59.3725 98.4711 59.3725 98.4716 59.1701C98.4938 58.471 98.4938 58.471 98.1133 57.92C97.6428 57.8546 97.6428 57.8546 97.1722 57.92C96.8123 58.4603 96.819 58.6584 96.818 59.2945C96.817 59.4829 96.8159 59.6712 96.8148 59.8653C96.8152 60.0723 96.8156 60.2793 96.816 60.4925C96.8153 60.7125 96.8145 60.9324 96.8135 61.1524C96.8117 61.6262 96.8109 62.1001 96.8107 62.5739C96.8104 63.3232 96.8076 64.0726 96.8043 64.8219C96.7966 66.6833 96.7918 68.5447 96.7884 70.4062C96.7859 71.8523 96.7823 73.2985 96.7754 74.7446C96.772 75.4894 96.7707 76.2341 96.7711 76.9789C96.7708 77.4426 96.7686 77.9062 96.7659 78.3698C96.7646 78.687 96.7656 79.0042 96.7667 79.3214C96.7652 79.5107 96.7637 79.7 96.7621 79.895C96.7617 80.1413 96.7617 80.1413 96.7612 80.3926C96.6718 81.0627 96.3991 81.475 95.8979 81.9176C95.2495 82.1715 94.7016 82.1229 94.0354 81.9372C93.5658 81.5847 93.4369 81.3959 93.2512 80.8384C93.2359 80.4951 93.2303 80.1513 93.2296 79.8076C93.2291 79.7024 93.2287 79.5972 93.2282 79.4888C93.2269 79.1356 93.2267 78.7824 93.2265 78.4292C93.2257 78.1763 93.2249 77.9233 93.2241 77.6704C93.2223 77.1254 93.221 76.5804 93.22 76.0353C93.2183 75.174 93.2151 74.3127 93.2116 73.4513C93.2019 71.0019 93.1934 68.5525 93.1883 66.1031C93.1854 64.7506 93.1809 63.3981 93.1745 62.0456C93.1711 61.3295 93.1687 60.6135 93.1684 59.8975C93.168 59.2244 93.1656 58.5514 93.1614 57.8783C93.1603 57.6309 93.16 57.3836 93.1605 57.1362C93.1611 56.7992 93.1588 56.4623 93.1559 56.1252C93.1551 55.842 93.1551 55.842 93.1543 55.5531C93.1315 55.0965 93.1315 55.0965 92.8804 54.7976C92.5178 54.5515 92.2677 54.5686 91.8396 54.6235C91.4603 55.0032 91.4882 55.1991 91.4836 55.7172C91.4842 55.8262 91.4848 55.9352 91.4855 56.0475C91.4849 56.1632 91.4843 56.2788 91.4837 56.3979C91.4821 56.7874 91.4828 57.1769 91.4834 57.5663C91.4827 57.8448 91.4819 58.1232 91.4809 58.4017C91.4791 59.0024 91.4783 59.6031 91.4781 60.2038C91.4778 61.1536 91.475 62.1034 91.4717 63.0532C91.464 65.413 91.4592 67.7728 91.4559 70.1327C91.4533 71.9652 91.4497 73.7977 91.4428 75.6303C91.4394 76.5744 91.4382 77.5185 91.4385 78.4627C91.4382 79.0505 91.436 79.6383 91.4333 80.2261C91.4324 80.4986 91.4323 80.7711 91.4331 81.0435C91.4341 81.4158 91.4322 81.788 91.4295 82.1602C91.4305 82.2678 91.4315 82.3754 91.4325 82.4863C91.4234 83.1992 91.2694 83.685 90.8986 84.2919C90.4387 84.6754 90.1633 84.7576 89.5654 84.8217C88.9775 84.7586 88.6912 84.6593 88.2323 84.2919C87.8972 83.7716 87.8794 83.3462 87.8792 82.7345C87.8783 82.5444 87.8775 82.3542 87.8766 82.1583C87.8772 81.9481 87.8779 81.7379 87.8786 81.5276C87.8781 81.3059 87.8776 81.0841 87.8768 80.8623C87.8756 80.385 87.8752 79.9078 87.8756 79.4305C87.876 78.6759 87.8738 77.9214 87.871 77.1668C87.8637 75.0212 87.8599 72.8756 87.8589 70.7301C87.8583 69.5448 87.8555 68.3596 87.8502 67.1744C87.8471 66.4242 87.8467 65.674 87.8484 64.9238C87.8488 64.4572 87.8466 63.9907 87.8437 63.5242C87.8429 63.3078 87.8431 63.0913 87.8445 62.8749C87.8462 62.5796 87.8438 62.2843 87.8411 61.9889C87.8409 61.8236 87.8407 61.6583 87.8405 61.488C87.7417 60.9503 87.5642 60.7596 87.1344 60.4316C86.7198 60.4178 86.7198 60.4178 86.3502 60.5886C85.9634 61.1692 85.9972 61.4593 85.9965 62.1524C85.9956 62.3183 85.9956 62.3183 85.9948 62.4875C85.9937 62.7275 85.9933 62.9675 85.9935 63.2075C85.9936 63.5876 85.9916 63.9676 85.9889 64.3477C85.9817 65.4283 85.9778 66.5089 85.9768 67.5895C85.976 68.2506 85.9722 68.9117 85.9665 69.5728C85.965 69.8245 85.9646 70.0762 85.9655 70.3279C85.9666 70.6804 85.9639 71.0327 85.9603 71.3852C85.9599 71.5856 85.9594 71.786 85.959 71.9925C85.8663 72.6078 85.6857 72.8661 85.2523 73.3036C84.6685 73.5957 84.0059 73.5496 83.3702 73.4606C82.8859 73.1143 82.6438 72.8959 82.4917 72.3162C82.423 71.849 82.3958 71.3934 82.3796 70.9214C82.373 70.7398 82.3664 70.5581 82.3596 70.371C82.3535 70.1829 82.3473 69.9949 82.341 69.8011C82.3342 69.61 82.3274 69.4188 82.3204 69.2219C82.3038 68.7511 82.2878 68.2803 82.2723 67.8095C81.7207 67.6621 81.7207 67.6621 81.1812 67.7745C81.0852 67.8346 80.9891 67.8947 80.8902 67.9566C80.201 68.3301 79.7591 68.3828 78.9787 68.2804C78.4987 67.9984 78.2618 67.7658 77.9788 67.2895C77.8461 66.7185 77.886 66.3354 78.0376 65.7688C78.6513 64.9921 79.4561 64.5107 80.3903 64.199C80.7397 64.1881 81.0895 64.1857 81.4391 64.1892C81.6241 64.1906 81.8091 64.192 81.9997 64.1935C82.2123 64.1962 82.2123 64.1962 82.4292 64.199C82.4275 64.1057 82.4259 64.0124 82.4242 63.9163C82.4176 63.4873 82.4136 63.0583 82.4096 62.6293C82.407 62.4826 82.4043 62.3359 82.4016 62.1847C82.3911 60.6811 82.6118 59.3283 83.6974 58.2113C84.5699 57.4062 85.2376 56.9722 86.4384 56.8702C86.5842 56.8567 86.73 56.8431 86.8802 56.8291C87.264 56.8217 87.5544 56.8641 87.9186 56.9781C87.9113 56.8019 87.9041 56.6256 87.8966 56.4441C87.8491 54.8147 87.9651 53.7606 88.8891 52.3866C90.5027 50.8075 92.8532 50.4895 94.8196 51.641Z" fill="black"/>
<path d="M19.5311 85.5553C19.7539 85.554 19.7539 85.554 19.9811 85.5527C20.1438 85.5525 20.3065 85.5523 20.4741 85.5521C20.6456 85.5514 20.8172 85.5506 20.9939 85.5498C21.5626 85.5475 22.1314 85.5465 22.7001 85.5456C23.0948 85.5447 23.4895 85.5438 23.8842 85.543C24.6066 85.5415 25.3289 85.5406 26.0512 85.5401C27.1133 85.5394 28.1754 85.5367 29.2375 85.5322C30.1582 85.5284 31.079 85.5273 31.9997 85.527C32.391 85.5265 32.7823 85.5253 33.1736 85.5232C33.7211 85.5206 34.2685 85.5209 34.8159 85.5219C34.9776 85.5205 35.1393 85.519 35.306 85.5176C36.1476 85.5224 36.7651 85.56 37.4852 86.0414C37.8625 86.5695 37.9561 86.8743 37.9561 87.5213C37.7699 88.1523 37.5224 88.4116 37.0143 88.8271C36.6392 89.012 36.4075 89.0021 35.9887 89.0036C35.8388 89.0045 35.689 89.0053 35.5346 89.0063C35.3696 89.0064 35.2047 89.0066 35.0347 89.0068C34.8614 89.0075 34.6881 89.0083 34.5095 89.0091C33.9341 89.0114 33.3587 89.0124 32.7833 89.0133C32.3844 89.0142 31.9856 89.0151 31.5868 89.016C30.8567 89.0174 30.1266 89.0183 29.3965 89.0188C28.3222 89.0195 27.2479 89.0222 26.1737 89.0267C25.2431 89.0305 24.3125 89.0316 23.382 89.0319C22.9862 89.0324 22.5904 89.0336 22.1945 89.0357C21.641 89.0383 21.0876 89.038 20.5341 89.037C20.3701 89.0384 20.2061 89.0399 20.0371 89.0413C19.0494 89.0357 18.4793 88.9367 17.7382 88.2564C17.4623 87.7265 17.4301 87.2342 17.5518 86.6604C18.0283 85.8233 18.5831 85.5587 19.5311 85.5553Z" fill="black"/>
<path d="M126.255 72.6363C126.404 72.635 126.554 72.6337 126.707 72.6323C126.869 72.6325 127.031 72.6326 127.198 72.6328C127.455 72.6312 127.455 72.6312 127.719 72.6296C128.286 72.6267 128.854 72.6261 129.422 72.6258C129.817 72.6248 130.212 72.6238 130.607 72.6227C131.435 72.6209 132.263 72.6203 133.09 72.6205C134.046 72.6207 135.001 72.6175 135.957 72.6126C136.878 72.6081 137.799 72.607 138.719 72.6072C139.11 72.6069 139.502 72.6055 139.893 72.6031C140.439 72.6001 140.986 72.601 141.533 72.6029C141.775 72.6003 141.775 72.6003 142.022 72.5977C142.956 72.6057 143.49 72.6854 144.202 73.2893C144.603 73.8448 144.537 74.3054 144.445 74.9533C144.324 75.4097 144.122 75.6215 143.73 75.8905C143.28 76.0367 142.996 76.0637 142.528 76.0661C142.378 76.0672 142.228 76.0683 142.073 76.0694C141.908 76.0698 141.744 76.0702 141.575 76.0706C141.401 76.0716 141.228 76.0726 141.049 76.0737C140.475 76.0767 139.9 76.0785 139.325 76.08C139.031 76.0809 139.031 76.0809 138.731 76.0819C137.8 76.0848 136.869 76.087 135.938 76.0883C134.865 76.0898 133.791 76.0938 132.718 76.1C131.787 76.1052 130.857 76.107 129.926 76.1076C129.531 76.1083 129.135 76.1101 128.74 76.1129C128.187 76.1167 127.633 76.1165 127.08 76.1155C126.917 76.1174 126.753 76.1194 126.585 76.1214C125.647 76.1148 125.108 76.0392 124.392 75.4315C124.022 74.9406 124.004 74.4986 124.078 73.9013C124.592 72.9378 125.158 72.6406 126.255 72.6363Z" fill="black"/>
<path d="M88.2867 110.326C88.7415 110.559 89.1381 110.851 89.5448 111.157C89.7818 111.329 90.0189 111.5 90.2562 111.671C90.3745 111.758 90.4928 111.844 90.6148 111.933C91.1214 112.299 91.6396 112.647 92.1593 112.995C93.2203 113.71 94.2778 114.43 95.334 115.152C95.4822 115.253 95.6304 115.354 95.7831 115.458C96.2209 115.757 96.6573 116.059 97.0934 116.361C97.3273 116.521 97.3273 116.521 97.566 116.684C97.7188 116.791 97.8715 116.897 98.0289 117.007C98.1663 117.102 98.3037 117.197 98.4452 117.295C99.0821 117.807 99.4229 118.17 99.5407 118.982C99.5094 119.49 99.4167 119.672 99.1476 120.142C98.6178 120.578 98.3245 120.729 97.6432 120.757C96.8115 120.622 96.1879 120.088 95.5207 119.61C95.3404 119.488 95.1596 119.366 94.9783 119.246C93.5523 118.294 92.1423 117.319 90.7288 116.35C90.031 115.871 89.3327 115.394 88.6301 114.923C88.5162 114.846 88.4023 114.77 88.2849 114.691C88.0786 114.553 87.872 114.415 87.665 114.277C85.7968 113.025 85.7968 113.025 85.6133 112.183C85.6258 111.494 85.6949 111.19 86.144 110.655C86.8381 110.102 87.4492 110.102 88.2867 110.326Z" fill="black"/>
<path d="M124.155 81.0063C124.349 81.0048 124.543 81.0034 124.743 81.0019C125.055 81.0021 125.055 81.0021 125.374 81.0023C125.591 81.0017 125.809 81.001 126.026 81.0003C126.481 80.9991 126.936 80.9992 127.391 81C127.972 81.0009 128.553 80.9982 129.134 80.9947C129.583 80.9924 130.032 80.9922 130.481 80.9927C130.799 80.9926 131.117 80.9905 131.435 80.9883C131.629 80.9892 131.824 80.9902 132.024 80.9912C132.28 80.9911 132.28 80.9911 132.541 80.9909C133.109 81.0591 133.488 81.2255 133.977 81.5133C134.361 82.0446 134.455 82.3427 134.443 82.9939C134.281 83.5753 134.094 83.8764 133.659 84.3003C133.136 84.4703 132.744 84.4768 132.193 84.4801C131.989 84.4816 131.785 84.4831 131.575 84.4846C131.352 84.4853 131.129 84.486 130.905 84.4866C130.677 84.4875 130.448 84.4884 130.219 84.4893C129.739 84.4909 129.259 84.4918 128.779 84.4923C128.165 84.4932 127.551 84.4969 126.937 84.5013C126.464 84.5042 125.991 84.505 125.518 84.5052C125.292 84.5057 125.066 84.5069 124.839 84.509C124.522 84.5116 124.205 84.511 123.888 84.5103C123.708 84.5109 123.528 84.5114 123.342 84.512C122.799 84.4483 122.503 84.3019 122.064 83.9906C121.692 83.5246 121.679 83.0182 121.696 82.4369C121.778 81.9402 122.008 81.6928 122.381 81.3585C122.988 81.0666 123.482 81.0091 124.155 81.0063Z" fill="black"/>
<path d="M85.9281 30.829C86.4503 31.2774 86.6608 31.5553 86.7649 32.2576C86.7911 32.8642 86.7931 33.468 86.7856 34.0748C86.7854 34.2998 86.7854 34.5247 86.7857 34.7496C86.7854 35.2198 86.7826 35.6898 86.7777 36.16C86.7716 36.7614 86.771 37.3626 86.7721 37.9641C86.7726 38.4281 86.7707 38.8921 86.7681 39.3561C86.767 39.5778 86.7665 39.7995 86.7667 40.0212C86.7664 40.3314 86.7628 40.6415 86.759 40.9516C86.7577 41.1278 86.7564 41.3039 86.7551 41.4854C86.6865 42.0246 86.5452 42.3215 86.2347 42.7562C85.7106 43.1269 85.4053 43.2333 84.7688 43.2333C84.1373 43.0427 83.8804 42.8106 83.4753 42.2791C83.3016 41.758 83.3007 41.2582 83.2973 40.71C83.2958 40.5221 83.2943 40.3342 83.2928 40.1406C83.2921 39.9382 83.2915 39.7357 83.2908 39.5271C83.2899 39.3185 83.2891 39.1099 83.2882 38.895C83.2866 38.4535 83.2857 38.0122 83.2851 37.5707C83.2843 37.0068 83.2806 36.4429 83.2762 35.8789C83.2727 35.3391 83.2724 34.7992 83.2717 34.2593C83.2698 34.0575 83.2679 33.8558 83.2659 33.6478C83.2664 33.4589 83.2668 33.27 83.2673 33.0754C83.2668 32.9099 83.2662 32.7445 83.2656 32.574C83.3509 31.8583 83.5936 31.3252 84.1076 30.839C84.7275 30.6014 85.3084 30.5726 85.9281 30.829Z" fill="black"/>
<path d="M14.7585 93.2701C14.8597 93.2687 14.961 93.2674 15.0653 93.266C15.3991 93.2623 15.7327 93.2621 16.0665 93.2623C16.2991 93.2612 16.5318 93.26 16.7644 93.2587C17.2518 93.2566 17.739 93.2563 18.2264 93.2572C18.85 93.2582 19.4735 93.2533 20.0971 93.2469C20.5775 93.2429 21.0579 93.2424 21.5383 93.243C21.7682 93.2427 21.9981 93.2412 22.2279 93.2384C22.5499 93.2349 22.8714 93.2364 23.1933 93.2392C23.3762 93.2388 23.5591 93.2385 23.7476 93.2382C24.3813 93.3657 24.6133 93.6329 25.0198 94.1272C25.26 94.6119 25.2125 95.0155 25.1766 95.5506C24.9106 96.1545 24.6859 96.4221 24.0795 96.6577C23.6178 96.701 23.6178 96.701 23.0738 96.7061C22.7677 96.7099 22.7677 96.7099 22.4556 96.7138C22.2333 96.7148 22.011 96.7157 21.7887 96.7164C21.5599 96.7178 21.3312 96.7192 21.1024 96.7207C20.6231 96.7233 20.1439 96.7245 19.6646 96.725C19.0518 96.7258 18.4393 96.7318 17.8265 96.739C17.3541 96.7437 16.8816 96.7449 16.4092 96.745C16.1833 96.7457 15.9575 96.7477 15.7317 96.751C13.7462 96.7777 13.7462 96.7777 13.1288 96.2772C12.6702 95.7126 12.5753 95.3201 12.6388 94.6017C13.0724 93.5654 13.6793 93.2779 14.7585 93.2701Z" fill="black"/>
<path d="M73.1464 33.8537C73.2667 33.8478 73.3871 33.842 73.5111 33.8359C74.0504 33.9309 74.2896 34.1544 74.6823 34.5283C74.8744 35.0091 74.8744 35.0091 75.0062 35.5744C75.031 35.6767 75.0559 35.7791 75.0815 35.8845C75.1345 36.1026 75.1864 36.3209 75.2372 36.5395C75.342 36.9826 75.4582 37.4224 75.5744 37.8627C75.6909 38.3067 75.803 38.7518 75.9149 39.197C75.9724 39.4241 76.0307 39.6509 76.0897 39.8776C76.1768 40.2123 76.2612 40.5476 76.3451 40.8831C76.3951 41.0787 76.445 41.2743 76.4964 41.4758C76.5919 42.082 76.5665 42.5354 76.4263 43.1318C76.0791 43.5358 75.7971 43.8332 75.3165 44.0703C74.9956 44.0734 74.9956 44.0734 74.6228 44.041C74.5006 44.0323 74.3784 44.0237 74.2525 44.0147C73.7439 43.8734 73.5867 43.7006 73.2554 43.2882C73.0612 42.7956 72.9376 42.2897 72.8119 41.7765C72.7741 41.6283 72.7363 41.4801 72.6974 41.3274C72.618 41.014 72.5397 40.7002 72.4624 40.3863C72.3448 39.9097 72.2229 39.4343 72.1003 38.9589C72.0235 38.6533 71.9469 38.3475 71.8706 38.0418C71.8344 37.9012 71.7983 37.7607 71.761 37.6159C71.2074 35.331 71.2074 35.331 71.8086 34.362C72.2688 33.9481 72.5368 33.8729 73.1464 33.8537Z" fill="black"/>
<path d="M97.4057 33.8423C97.7778 33.9167 97.7778 33.9167 98.2568 34.229C98.7641 35.0131 98.7756 35.7819 98.5979 36.6734C98.5362 36.9378 98.4721 37.2017 98.4059 37.4651C98.3721 37.6064 98.3383 37.7476 98.3034 37.8931C98.2318 38.19 98.1592 38.4868 98.0856 38.7833C97.9736 39.2347 97.8651 39.6868 97.757 40.1391C97.6867 40.4288 97.6163 40.7185 97.5456 41.0081C97.5133 41.142 97.481 41.2759 97.4478 41.4139C96.9517 43.3991 96.9517 43.3991 96.2624 43.9111C95.6156 44.1061 95.1326 44.1432 94.4929 43.9111C94.0202 43.5179 93.754 43.2812 93.668 42.67C93.6721 41.7268 93.8312 40.869 94.0597 39.9558C94.096 39.8071 94.1324 39.6585 94.1698 39.5053C94.2467 39.1933 94.3244 38.8815 94.403 38.5699C94.5222 38.094 94.6368 37.6171 94.7511 37.14C94.8266 36.8357 94.9025 36.5315 94.9787 36.2274C95.0123 36.0856 95.0459 35.9437 95.0805 35.7975C95.4247 34.4666 95.9677 33.761 97.4057 33.8423Z" fill="black"/>
<path d="M141.363 91.1012C141.509 91.0992 141.655 91.0972 141.805 91.0952C142.041 91.0935 142.041 91.0935 142.281 91.0918C142.443 91.0905 142.605 91.0893 142.772 91.088C143.116 91.0859 143.459 91.0842 143.802 91.083C144.326 91.0803 144.85 91.0736 145.373 91.0668C145.707 91.0652 146.041 91.0639 146.374 91.0629C146.608 91.0588 146.608 91.0588 146.848 91.0547C147.784 91.0576 148.31 91.1414 149.025 91.7448C149.398 92.239 149.416 92.6841 149.342 93.2855C149.003 93.8992 148.743 94.2632 148.076 94.5182C147.723 94.5583 147.723 94.5583 147.335 94.5605C147.188 94.562 147.042 94.5634 146.892 94.5649C146.735 94.5648 146.578 94.5647 146.416 94.5645C146.254 94.5652 146.092 94.5658 145.925 94.5665C145.582 94.5674 145.239 94.5675 144.896 94.5668C144.372 94.5663 143.848 94.5699 143.323 94.5738C142.99 94.5742 142.657 94.5743 142.323 94.5741C142.167 94.5756 142.01 94.577 141.849 94.5784C140.868 94.572 140.3 94.4633 139.564 93.7959C139.286 93.2684 139.254 92.7782 139.377 92.207C139.854 91.3779 140.413 91.1124 141.363 91.1012Z" fill="black"/>
<path d="M22.9092 102.838C23.0631 102.836 23.217 102.833 23.3756 102.831C23.6236 102.83 23.6236 102.83 23.8766 102.83C24.0473 102.829 24.2181 102.828 24.3941 102.827C24.7551 102.825 25.1161 102.825 25.4771 102.825C26.0292 102.825 26.5811 102.819 27.1332 102.812C27.4841 102.811 27.8349 102.811 28.1858 102.811C28.3508 102.808 28.5158 102.805 28.6858 102.803C29.8331 102.814 29.8331 102.814 30.4415 103.287C30.9038 103.94 30.9548 104.313 30.8882 105.123C30.4071 106.001 30.4071 106.001 29.9501 106.233C29.7045 106.251 29.4582 106.26 29.2119 106.263C28.9817 106.267 28.9817 106.267 28.7469 106.271C28.044 106.278 27.3411 106.284 26.6382 106.288C26.2676 106.291 25.897 106.295 25.5264 106.301C24.9921 106.31 24.458 106.313 23.9236 106.316C23.7584 106.319 23.5933 106.323 23.4231 106.326C22.1379 106.323 22.1379 106.323 21.5609 105.852C21.1191 105.355 21.0451 105.12 21.0117 104.478C21.0654 103.868 21.353 103.52 21.7895 103.125C22.1973 102.864 22.4299 102.843 22.9092 102.838Z" fill="black"/>
<path d="M109.313 38.7675C109.928 39.172 110.066 39.4475 110.277 40.1536C110.312 40.6968 110.197 41.0131 109.927 41.4803C109.855 41.6046 109.783 41.7289 109.71 41.857C109.298 42.5383 108.872 43.209 108.439 43.8763C108.35 44.0143 108.261 44.1524 108.17 44.2946C106.992 46.1146 106.992 46.1146 106.483 46.3713C105.754 46.4593 105.227 46.4721 104.596 46.0743C104.078 45.5209 104.066 45.1124 104.076 44.3765C104.155 43.742 104.455 43.3037 104.812 42.7872C104.882 42.6805 104.952 42.5738 105.024 42.4638C105.171 42.2408 105.32 42.0186 105.47 41.7974C105.696 41.4611 105.916 41.1213 106.134 40.7798C106.273 40.5644 106.412 40.349 106.551 40.1338C106.649 39.9826 106.649 39.9826 106.748 39.8283C107.451 38.7623 108.089 38.5806 109.313 38.7675Z" fill="black"/>
<path d="M61.6564 38.721C61.778 38.7151 61.8996 38.7092 62.0249 38.7031C62.7152 38.8243 63.0653 39.2064 63.4685 39.7545C63.7638 40.1931 64.0479 40.6372 64.3293 41.0846C64.4259 41.2352 64.5225 41.3858 64.6221 41.541C66.4138 44.3517 66.4138 44.3517 66.2513 45.2308C65.9842 45.7813 65.8124 45.9913 65.2903 46.3338C64.9212 46.3923 64.9212 46.3923 64.5095 46.4027C64.3069 46.4122 64.3069 46.4122 64.1003 46.4218C63.373 46.2663 62.9842 45.6792 62.5666 45.1024C62.4655 44.9445 62.3644 44.7866 62.2602 44.6239C62.0928 44.3643 62.0928 44.3643 61.922 44.0994C61.8067 43.9185 61.6915 43.7375 61.5763 43.5565C61.4593 43.3743 61.3422 43.1921 61.225 43.01C61.0108 42.6767 60.7971 42.3432 60.5839 42.0093C60.3947 41.715 60.201 41.4236 60.0046 41.1338C59.8862 40.4101 59.907 39.8694 60.305 39.2429C60.7677 38.8145 61.0353 38.7405 61.6564 38.721Z" fill="black"/>
<rect width="162" height="162" rx="30" fill="#F7C83E" fill-opacity="0.2"/>
</svg>
