<svg width="745" height="652" viewBox="0 0 745 652" fill="none" xmlns="http://www.w3.org/2000/svg">
<path d="M292.682 93.7933C301.81 100.2 308.326 107.903 310.358 119.053C310.445 122.328 310.477 125.567 310.436 128.84C310.431 129.721 310.425 130.602 310.419 131.509C310.404 133.672 310.382 135.834 310.358 137.997C311.487 137.924 312.616 137.85 313.78 137.775C325.749 137.328 334.153 138.532 343.262 146.626C353.11 157.032 353.827 167.161 353.52 180.938C353.503 182.398 353.485 183.858 353.468 185.363C353.423 188.94 353.361 192.516 353.283 196.093C354.412 196.02 355.542 195.947 356.705 195.871C368.648 195.425 377.153 196.585 386.187 204.766C395.541 214.787 397.669 225.206 397.64 238.694C397.642 239.653 397.645 240.612 397.648 241.6C397.656 244.802 397.655 248.004 397.654 251.206C397.658 253.507 397.662 255.809 397.667 258.11C397.678 264.358 397.681 270.606 397.682 276.854C397.683 280.767 397.686 284.679 397.689 288.592C397.701 302.271 397.706 315.949 397.705 329.628C397.704 342.328 397.717 355.029 397.737 367.73C397.754 378.666 397.76 389.603 397.76 400.539C397.759 407.056 397.763 413.573 397.776 420.089C397.789 426.236 397.789 432.382 397.779 438.528C397.778 440.764 397.781 443.001 397.789 445.237C397.826 456.617 397.513 467.853 396.352 479.18C396.255 480.135 396.157 481.091 396.057 482.075C392.04 517.546 372.923 552.441 344.968 574.767C336.858 581.013 328.378 586.764 319.915 592.515C313.114 597.141 306.372 601.851 299.626 606.556C288.082 614.598 276.517 622.606 264.907 630.552C263.167 631.744 263.167 631.744 261.393 632.96C257.568 635.58 253.742 638.197 249.915 640.814C248.689 641.653 247.464 642.492 246.201 643.357C245.06 644.136 243.919 644.915 242.744 645.718C241.722 646.416 240.7 647.115 239.648 647.835C234.818 651.025 231.588 651.154 225.769 650.76C221.302 648.674 219.696 647.329 216.932 643.182C216.463 640.271 216.463 640.271 216.379 637.025C216.329 635.96 216.278 634.895 216.226 633.798C217.793 626.587 225.265 622.574 230.977 618.554C231.738 618.017 232.499 617.48 233.283 616.927C240.549 611.82 247.886 606.815 255.223 601.813C264.655 595.38 274.024 588.861 283.387 582.329C289.703 577.926 296.031 573.543 302.392 569.205C334.587 547.219 358.636 523.064 366.551 483.347C368.722 470.962 368.782 458.85 368.74 446.324C368.741 443.964 368.744 441.604 368.747 439.243C368.753 432.882 368.743 426.521 368.731 420.161C368.719 413.491 368.722 406.821 368.722 400.152C368.721 388.968 368.71 377.785 368.693 366.602C368.673 353.668 368.666 340.733 368.667 327.799C368.668 314.015 368.659 300.23 368.648 286.446C368.645 282.475 368.644 278.503 368.644 274.532C368.642 268.306 368.635 262.08 368.622 255.854C368.618 253.566 368.617 251.279 368.617 248.991C368.618 245.877 368.611 242.763 368.602 239.648C368.604 238.737 368.606 237.825 368.608 236.886C368.589 233.037 368.398 230.087 367.17 226.404C362.935 225.438 362.935 225.438 358.333 225.141C355.599 227.066 354.674 228.221 354.074 231.529C354.074 232.532 354.075 233.536 354.076 234.57C354.067 235.724 354.059 236.878 354.05 238.068C354.06 239.331 354.07 240.595 354.08 241.897C354.075 243.23 354.07 244.563 354.065 245.937C354.057 248.835 354.058 251.734 354.065 254.632C354.077 259.218 354.064 263.804 354.044 268.39C353.994 281.429 353.992 294.469 353.995 307.509C353.995 315.481 353.971 323.453 353.933 331.425C353.919 335.946 353.935 340.466 353.95 344.986C353.939 347.757 353.926 350.528 353.912 353.299C353.924 354.558 353.937 355.816 353.949 357.113C353.892 362.623 353.815 365.728 350.876 370.502C346.456 374.525 343.09 374.671 337.284 374.615C332.241 373.853 330.169 371.596 326.77 367.856C325.22 363.591 325.34 359.381 325.325 354.878C325.316 353.249 325.307 351.619 325.298 349.941C325.295 348.138 325.292 346.335 325.288 344.533C325.28 342.632 325.272 340.732 325.263 338.831C325.244 334.741 325.23 330.651 325.217 326.561C325.198 320.098 325.168 313.636 325.136 307.173C325.046 288.796 324.97 270.419 324.906 252.042C324.87 241.891 324.825 231.74 324.771 221.589C324.737 215.16 324.715 208.73 324.7 202.301C324.689 198.309 324.667 194.317 324.642 190.325C324.633 188.468 324.627 186.612 324.627 184.756C324.625 182.229 324.607 179.703 324.588 177.177C324.58 175.053 324.58 175.053 324.572 172.885C324.579 169.371 324.579 169.371 321.72 167.045C317.933 166.624 317.933 166.624 314.145 167.045C311.306 169.352 311.306 169.352 311.307 172.721C311.309 174.728 311.309 174.728 311.311 176.776C311.306 178.309 311.301 179.843 311.296 181.423C311.303 183.131 311.31 184.84 311.318 186.548C311.316 188.341 311.314 190.133 311.31 191.925C311.304 195.791 311.305 199.656 311.312 203.521C311.322 209.635 311.308 215.749 311.29 221.863C311.243 239.251 311.22 256.638 311.234 274.026C311.242 283.625 311.228 293.224 311.188 302.822C311.165 308.898 311.169 314.973 311.194 321.048C311.202 324.834 311.185 328.619 311.16 332.404C311.153 334.157 311.158 335.909 311.174 337.661C311.3 352.548 311.3 352.547 307.31 357.512C302.809 361.326 300.041 362.045 294.078 361.99C289.329 361.188 287.124 358.666 283.845 355.226C282.38 350.831 282.401 346.9 282.408 342.329C282.404 341.395 282.401 340.461 282.397 339.499C282.387 336.36 282.385 333.222 282.383 330.083C282.377 327.837 282.371 325.59 282.364 323.343C282.349 318.502 282.339 313.66 282.331 308.818C282.317 301.166 282.292 293.515 282.264 285.863C282.185 264.104 282.117 242.345 282.076 220.586C282.052 208.572 282.016 196.558 281.964 184.544C281.938 178.183 281.918 171.822 281.915 165.461C281.913 159.482 281.893 153.503 281.859 147.524C281.85 145.326 281.848 143.128 281.852 140.93C281.857 137.936 281.839 134.943 281.815 131.95C281.825 130.636 281.825 130.636 281.836 129.296C281.786 125.729 281.667 123.355 279.642 120.358C277.383 118.672 277.383 118.672 273.587 119.368C270.111 119.948 270.111 119.948 268.695 121.578C268.565 124.231 268.526 126.887 268.52 129.543C268.517 130.384 268.513 131.226 268.51 132.093C268.499 134.934 268.497 137.774 268.496 140.615C268.49 142.644 268.483 144.672 268.476 146.701C268.462 151.08 268.451 155.46 268.443 159.839C268.43 166.765 268.404 173.69 268.376 180.616C268.298 200.313 268.23 220.011 268.188 239.708C268.165 250.579 268.128 261.449 268.077 272.319C268.05 278.074 268.031 283.828 268.028 289.583C268.025 294.999 268.005 300.415 267.972 305.832C267.963 307.818 267.96 309.805 267.964 311.791C267.969 314.507 267.951 317.222 267.927 319.938C267.923 321.457 267.919 322.976 267.914 324.541C267.259 330.202 265.323 334.416 261.514 338.65C257.215 340.742 253.132 340.763 248.494 340.071C243.968 338.004 242.443 336.674 239.657 332.493C239.337 329.201 239.337 329.201 239.331 325.167C239.322 323.639 239.314 322.111 239.305 320.536C239.308 318.84 239.311 317.144 239.314 315.448C239.309 313.664 239.302 311.88 239.294 310.096C239.28 306.253 239.273 302.409 239.272 298.566C239.269 292.49 239.247 286.414 239.22 280.337C239.158 265.245 239.119 250.152 239.092 235.059C239.072 223.331 239.043 211.604 238.988 199.876C238.96 193.835 238.95 187.794 238.953 181.753C238.951 177.995 238.933 174.237 238.911 170.48C238.904 168.736 238.903 166.993 238.91 165.25C238.917 162.871 238.9 160.492 238.881 158.113C238.878 156.781 238.876 155.45 238.873 154.078C238.327 150.139 237.375 148.393 234.607 145.575C231.451 144.733 231.451 144.733 228.294 145.575C225.017 148.673 224.517 150.526 224.032 155.057C224.011 156.869 224.012 158.681 224.029 160.493C224.02 161.994 224.02 161.994 224.011 163.525C223.997 166.881 224.009 170.236 224.021 173.591C224.016 175.996 224.009 178.4 224 180.805C223.986 185.984 223.982 191.164 223.988 196.343C223.997 204.532 223.977 212.72 223.952 220.908C223.905 238.29 223.888 255.673 223.875 273.055C223.862 291.815 223.842 310.575 223.786 329.336C223.763 337.477 223.758 345.619 223.767 353.76C223.769 358.823 223.756 363.886 223.738 368.949C223.733 371.299 223.734 373.649 223.742 375.998C223.753 379.204 223.74 382.409 223.722 385.614C223.735 387.011 223.735 387.011 223.749 388.437C223.687 394.005 222.839 397.505 219.457 401.956C215.137 405.197 210.813 404.942 205.569 404.482C201.332 402.748 199.654 401.326 197.216 397.447C195.056 392.091 194.939 387.769 194.983 382.057C194.976 380.972 194.97 379.886 194.963 378.768C194.95 376.422 194.947 374.075 194.95 371.729C194.956 368.012 194.938 364.297 194.915 360.58C194.86 351.352 194.846 342.124 194.831 332.896C194.816 325.091 194.787 317.287 194.737 309.482C194.72 305.826 194.725 302.17 194.731 298.514C194.719 296.266 194.706 294.018 194.692 291.77C194.7 290.758 194.708 289.746 194.716 288.704C194.649 282.619 193.958 278.303 190.419 273.134C187.928 271.399 185.406 269.709 182.844 268.082C182.726 296.253 182.637 324.423 182.582 352.594C182.556 365.674 182.521 378.754 182.463 391.834C182.413 403.235 182.38 414.637 182.369 426.038C182.362 432.074 182.347 438.11 182.31 444.147C182.276 449.831 182.265 455.514 182.273 461.198C182.271 463.282 182.261 465.366 182.242 467.449C182.217 470.301 182.223 473.15 182.237 476.002C182.23 478.392 182.23 478.392 182.222 480.831C183.009 486.499 184.668 489.443 187.894 494.152C191.473 496.252 191.473 496.252 195.469 497.389C200.437 499.249 202.789 500.2 206.516 504.098C208.392 508.79 208.732 511.873 208.094 516.886C205.707 521.656 203.313 524.33 198.882 527.251C197.79 527.981 196.699 528.712 195.574 529.464C193.803 530.622 193.803 530.622 191.997 531.804C189.469 533.492 186.943 535.181 184.417 536.871C183.113 537.739 181.809 538.608 180.466 539.502C174.18 543.724 167.979 548.065 161.776 552.406C153.045 558.5 144.295 564.562 135.5 570.562C125.287 577.529 115.135 584.582 104.992 591.652C98.1329 596.432 91.2633 601.196 84.368 605.924C76.1354 611.57 67.9396 617.268 59.749 622.974C51.0782 629.013 42.4068 635.05 33.7097 641.051C32.9115 641.603 32.1132 642.156 31.2907 642.725C18.1467 651.775 18.1467 651.775 9.87983 650.76C5.82032 648.921 3.21308 647.483 1.14089 643.433C-0.298861 638.911 -0.273941 635.878 0.647719 631.184C3.81424 625.172 9.62332 621.862 15.1444 618.198C17.6734 616.514 20.1789 614.799 22.6825 613.078C26.6961 610.32 30.7162 607.572 34.7405 604.829C41.9239 599.924 49.0628 594.955 56.1982 589.98C64.3095 584.325 72.4258 578.679 80.5805 573.087C90.0843 566.57 99.5386 559.982 108.993 553.394C115.998 548.515 123.015 543.657 130.055 538.83C132.44 537.189 134.824 535.547 137.208 533.905C139.212 532.527 141.218 531.151 143.226 529.777C146.758 527.357 150.283 524.924 153.806 522.49C154.933 521.721 156.059 520.953 157.22 520.161C158.255 519.443 159.289 518.725 160.355 517.986C161.749 517.027 161.749 517.027 163.171 516.049C163.831 515.492 164.49 514.934 165.169 514.36C165.169 510.142 162.05 507.293 159.621 503.975C152.525 491.695 153.251 479.095 153.276 465.379C153.267 462.969 153.256 460.56 153.244 458.15C153.216 451.633 153.212 445.115 153.214 438.597C153.214 433.154 153.204 427.711 153.193 422.268C153.169 409.435 153.165 396.602 153.174 383.77C153.182 370.522 153.153 357.275 153.106 344.028C153.068 332.651 153.053 321.274 153.058 309.897C153.061 303.103 153.054 296.309 153.023 289.515C152.995 283.135 152.997 276.756 153.023 270.376C153.027 268.032 153.021 265.687 153.003 263.343C152.98 260.15 152.996 256.959 153.021 253.767C153.006 252.832 152.99 251.898 152.974 250.935C153.019 248.347 153.019 248.347 153.806 244.086C160.473 238.725 167.421 238.804 175.663 238.797C176.59 238.782 177.517 238.766 178.472 238.75C179.389 238.748 180.306 238.745 181.251 238.743C182.072 238.738 182.892 238.732 183.738 238.727C187.799 239.158 191.558 240.412 195.469 241.56C195.456 239.846 195.456 239.846 195.443 238.097C195.367 227.284 195.31 216.471 195.273 205.658C195.253 200.099 195.226 194.541 195.183 188.983C195.142 183.612 195.119 178.24 195.11 172.868C195.103 170.826 195.089 168.785 195.069 166.744C194.917 151.047 195.471 137.317 206.832 125.367C216.628 116.513 226.932 116.15 239.657 116.527C240.187 115.313 240.187 115.313 240.727 114.075C245.587 103.586 250.565 96.4115 261.514 91.9778C272.096 88.6182 282.692 88.5693 292.682 93.7933Z" fill="#F7C83E"/>
<path d="M490.743 5.54949C498.337 11.1544 502.147 18.4916 505.862 27.0183C506.912 26.9597 507.963 26.9011 509.046 26.8407C520.562 26.4705 528.571 27.9942 537.753 35.0691C545.333 42.4894 548.914 50.0869 549.092 60.7326C549.095 61.6264 549.098 62.5202 549.101 63.4412C549.12 64.884 549.12 64.884 549.139 66.3559C549.178 69.5127 549.199 72.6694 549.221 75.8263C549.244 78.024 549.269 80.2216 549.295 82.4193C549.359 88.1867 549.409 93.9541 549.456 99.7216C549.507 105.614 549.571 111.506 549.634 117.397C549.756 128.946 549.862 140.494 549.959 152.043C550.923 151.639 551.887 151.236 552.88 150.821C564.219 146.445 576.568 148.002 587.757 152.043C589.004 152.876 590.251 153.71 591.536 154.568C591.916 157.682 592.046 160.48 592.016 163.597C592.022 164.538 592.028 165.479 592.034 166.449C592.049 169.62 592.037 172.79 592.025 175.961C592.031 178.228 592.037 180.496 592.046 182.763C592.063 188.94 592.056 195.117 592.044 201.294C592.035 207.768 592.043 214.242 592.049 220.716C592.056 231.61 592.047 242.504 592.029 253.398C592.009 265.948 592.015 278.499 592.036 291.049C592.053 301.842 592.056 312.635 592.046 323.428C592.04 329.865 592.039 336.302 592.052 342.739C592.063 348.813 592.055 354.886 592.033 360.959C592.028 363.172 592.029 365.384 592.038 367.597C592.111 388.698 589.339 407.644 581.457 427.349C582.163 427.684 582.87 428.019 583.598 428.365C597.637 435.675 610.496 446.143 623.448 455.196C629.174 459.197 634.915 463.174 640.673 467.129C648.811 472.72 656.911 478.366 665.006 484.02C673.878 490.216 682.767 496.383 691.7 502.489C700.867 508.757 709.994 515.081 719.104 521.432C720.319 522.28 721.535 523.127 722.787 524C726.077 526.297 729.364 528.599 732.648 530.904C733.552 531.535 734.456 532.166 735.387 532.817C742.924 538.127 742.924 538.127 743.987 542.27C744.704 548.637 744.71 551.127 741.467 556.714C737.433 560.168 735.413 560.977 730.33 561.573C723.136 560.621 717.111 555.584 711.308 551.505C710.029 550.615 710.029 550.615 708.724 549.706C705.776 547.653 702.833 545.593 699.89 543.533C697.539 541.893 695.188 540.253 692.837 538.614C689.095 536.005 685.352 533.396 681.611 530.785C674.7 525.961 667.778 521.154 660.832 516.381C651.345 509.862 641.908 503.272 632.469 496.683C624.789 491.324 617.094 485.988 609.372 480.69C604.311 477.212 599.275 473.701 594.248 470.173C592.955 469.266 591.661 468.359 590.328 467.425C587.78 465.637 585.234 463.847 582.69 462.053C576.54 457.741 570.417 453.667 563.818 450.08C563.055 450.813 562.291 451.545 561.505 452.3C545.664 467.103 526.73 476.436 504.917 478.258C499.258 477.713 496.328 475.76 492.239 471.944C490.06 467.691 489.508 463.497 490.743 458.92C494.737 452.687 497.823 450.509 504.956 448.819C505.93 448.61 506.905 448.401 507.909 448.186C526.19 443.629 541.732 434.77 551.798 418.203C558.982 405.6 562.681 393.861 562.757 379.282C562.764 378.414 562.77 377.546 562.776 376.652C562.796 373.761 562.806 370.87 562.817 367.979C562.829 365.9 562.842 363.822 562.855 361.743C562.889 356.11 562.915 350.477 562.94 344.844C562.968 338.954 563.002 333.063 563.036 327.173C563.099 316.023 563.156 304.873 563.21 293.723C563.272 281.027 563.341 268.331 563.411 255.635C563.555 229.524 563.689 203.412 563.818 177.3C558.642 180.671 554.539 183.365 551.219 188.666C549.536 196.856 549.741 205.132 549.7 213.464C549.688 215.054 549.675 216.645 549.662 218.283C549.629 222.622 549.602 226.96 549.577 231.299C549.549 235.841 549.515 240.383 549.481 244.925C549.418 253.517 549.361 262.108 549.307 270.7C549.245 280.485 549.176 290.271 549.106 300.056C548.963 320.176 548.828 340.296 548.699 360.416C547.241 360.464 545.782 360.511 544.279 360.559C542.34 360.642 540.401 360.726 538.462 360.811C537.504 360.84 536.546 360.868 535.558 360.897C528.439 361.236 523.348 362.848 517.467 367.096C515.209 370.294 514.883 373.473 514.209 377.307C513.12 382.275 512.264 385.508 509.563 389.857C504.155 392.971 499.345 393.27 493.262 391.988C489.704 389.222 487.7 387.151 485.703 383.148C484.39 370.92 487.165 360.173 494.05 349.998C501.436 340.912 509.87 336.543 520.981 333.896C520.875 298.044 520.755 262.192 520.618 226.341C520.555 209.695 520.497 193.05 520.449 176.404C520.408 161.901 520.358 147.397 520.297 132.894C520.265 125.21 520.237 117.527 520.221 109.843C520.204 102.618 520.177 95.3934 520.14 88.1687C520.128 85.5102 520.121 82.8516 520.119 80.1931C520.114 76.5771 520.095 72.9614 520.072 69.3455C520.075 67.7497 520.075 67.7497 520.079 66.1217C520.258 60.4974 520.258 60.4974 517.201 56.0644C513.421 55.5382 513.421 55.5382 509.641 56.0644C506.75 60.4113 506.804 62.0049 506.796 67.122C506.787 68.6376 506.779 70.1532 506.77 71.7147C506.773 73.3798 506.776 75.045 506.78 76.7605C506.774 78.53 506.768 80.2995 506.76 82.0691C506.745 85.8811 506.738 89.6931 506.737 93.5052C506.735 99.5336 506.712 105.562 506.686 111.59C506.624 126.565 506.585 141.541 506.558 156.516C506.537 168.15 506.509 179.784 506.454 191.419C506.426 197.411 506.416 203.402 506.419 209.394C506.417 213.124 506.399 216.854 506.377 220.584C506.367 223.136 506.375 225.688 506.384 228.24C506.372 229.762 506.36 231.285 506.347 232.854C506.343 234.835 506.343 234.835 506.339 236.857C505.621 242.248 503.431 245.565 499.404 249.126C494.196 251.169 489.794 250.778 484.443 249.284C480.67 246.447 479.635 244.928 478.143 240.444C478.02 237.681 477.975 234.916 477.969 232.151C477.966 231.304 477.962 230.458 477.959 229.586C477.948 226.745 477.946 223.903 477.945 221.061C477.939 219.027 477.932 216.992 477.925 214.957C477.911 210.572 477.9 206.187 477.892 201.803C477.879 194.873 477.853 187.944 477.825 181.014C477.747 161.309 477.679 141.603 477.638 121.898C477.614 111.017 477.578 100.136 477.527 89.2547C477.5 83.4943 477.481 77.734 477.478 71.9735C477.475 66.5585 477.455 61.1437 477.422 55.7288C477.413 53.7387 477.41 51.7487 477.414 49.7586C477.419 47.0472 477.401 44.3368 477.377 41.6255C477.371 39.3472 477.371 39.3472 477.365 37.0228C477.182 33.349 477.182 33.349 475.164 30.9447C472.252 28.9651 470.242 29.1022 466.804 29.5441C463.756 32.5989 463.981 34.1749 463.943 38.3431C463.949 39.22 463.954 40.0969 463.959 41.0003C463.954 41.9305 463.949 42.8608 463.945 43.8192C463.932 46.9526 463.937 50.0858 463.942 53.2192C463.937 55.4593 463.93 57.6993 463.922 59.9394C463.908 64.772 463.901 69.6046 463.9 74.4373C463.897 82.0786 463.875 89.7198 463.849 97.361C463.786 116.346 463.748 135.331 463.721 154.316C463.7 169.058 463.671 183.801 463.616 198.544C463.589 206.14 463.579 213.735 463.582 221.331C463.579 226.06 463.562 230.789 463.54 235.517C463.533 237.71 463.532 239.902 463.538 242.094C463.546 245.089 463.531 248.083 463.51 251.078C463.517 251.943 463.525 252.809 463.533 253.701C463.46 259.437 462.223 263.344 459.244 268.227C455.55 271.312 453.338 271.973 448.535 272.489C443.812 271.982 441.512 271.182 437.826 268.227C435.134 264.041 434.991 260.619 434.989 255.698C434.982 254.168 434.975 252.638 434.968 251.062C434.973 249.371 434.979 247.68 434.984 245.988C434.981 244.204 434.976 242.42 434.97 240.636C434.96 236.796 434.957 232.957 434.96 229.117C434.964 223.046 434.946 216.976 434.924 210.905C434.864 193.644 434.834 176.383 434.826 159.122C434.821 149.586 434.799 140.051 434.757 130.516C434.731 124.481 434.728 118.446 434.742 112.41C434.745 108.657 434.728 104.904 434.704 101.15C434.697 99.4091 434.699 97.668 434.71 95.927C434.724 93.551 434.704 91.175 434.683 88.7991C434.682 87.4693 434.68 86.1395 434.679 84.7693C433.885 80.4434 432.459 78.9091 429.006 76.2703C425.676 76.1591 425.676 76.1591 422.707 77.5332C419.6 82.2045 419.871 84.5383 419.865 90.1144C419.858 91.4488 419.858 91.4488 419.851 92.8101C419.843 94.7409 419.839 96.6717 419.841 98.6025C419.842 101.66 419.826 104.718 419.805 107.775C419.746 116.469 419.715 125.162 419.707 133.856C419.701 139.174 419.67 144.493 419.625 149.811C419.612 151.836 419.609 153.861 419.616 155.886C419.625 158.722 419.603 161.556 419.575 164.392C419.571 166.004 419.567 167.617 419.564 169.278C418.819 174.228 417.368 176.306 413.887 179.826C409.197 182.176 403.875 181.805 398.768 181.089C394.877 178.303 392.933 176.546 391.711 171.883C391.159 168.123 390.941 164.458 390.81 160.661C390.757 159.2 390.704 157.739 390.65 156.233C390.6 154.72 390.551 153.207 390.5 151.648C390.445 150.11 390.391 148.573 390.335 146.989C390.202 143.201 390.073 139.413 389.949 135.625C385.517 134.44 385.517 134.44 381.183 135.344C380.412 135.828 379.64 136.311 378.846 136.809C373.309 139.814 369.759 140.238 363.49 139.414C359.634 137.145 357.731 135.274 355.458 131.442C354.392 126.848 354.713 123.766 355.931 119.208C360.86 112.959 367.325 109.086 374.83 106.579C377.637 106.492 380.447 106.472 383.255 106.5C384.741 106.512 386.227 106.523 387.759 106.535C389.466 106.557 389.466 106.557 391.209 106.579C391.195 105.829 391.182 105.078 391.169 104.305C391.116 100.854 391.083 97.4022 391.051 93.9505C391.03 92.7703 391.009 91.59 390.987 90.374C390.903 78.2775 392.676 67.3938 401.396 58.4076C408.405 51.9306 413.769 48.4392 423.415 47.6189C424.586 47.5098 425.757 47.4008 426.964 47.2884C430.047 47.2285 432.38 47.5695 435.306 48.4871C435.247 47.0692 435.189 45.6513 435.129 44.1904C434.748 31.0825 435.679 22.6016 443.102 11.5481C456.064 -1.15591 474.946 -3.71411 490.743 5.54949Z" fill="#F7C83E"/>
<path d="M438.587 476.739C442.26 478.636 445.463 481.015 448.747 483.503C450.661 484.898 452.576 486.29 454.492 487.682C455.448 488.385 456.404 489.088 457.388 489.812C461.48 492.788 465.665 495.62 469.862 498.448C478.431 504.262 486.971 510.117 495.501 515.988C496.698 516.81 497.895 517.632 499.128 518.479C502.664 520.914 506.188 523.364 509.71 525.82C511.599 527.123 511.599 527.123 513.527 528.453C514.761 529.318 515.995 530.183 517.266 531.075C518.375 531.847 519.485 532.62 520.628 533.416C525.771 537.58 528.524 540.536 529.475 547.135C529.222 551.27 528.474 552.752 526.3 556.574C522.022 560.121 519.653 561.349 514.15 561.573C507.433 560.479 502.397 556.136 497.009 552.248C495.553 551.254 494.093 550.266 492.629 549.283C481.112 541.544 469.724 533.615 458.309 525.73C452.674 521.84 447.034 517.958 441.36 514.125C440.44 513.503 439.52 512.88 438.572 512.239C436.906 511.115 435.237 509.994 433.566 508.877C418.478 498.696 418.478 498.696 416.996 491.841C417.097 486.243 417.655 483.765 421.283 479.413C426.888 474.917 431.823 474.922 438.587 476.739Z" fill="#F7C83E"/>
</svg>
