<svg width="225" height="329" viewBox="0 0 225 329" fill="none" xmlns="http://www.w3.org/2000/svg">
<path d="M0 179H225V228C225 228 209.194 255.469 202.5 274.5C195.806 293.531 190.5 329 190.5 329H36.5C36.5 329 33.9579 297.463 27.5 278.5C21.0421 259.537 0 228 0 228V179Z" fill="#F7C83E"/>
<path d="M0 57V139H225V56.5C225 56.5 214 72.5 201 84.5C188 96.5 166.63 100.5 166.63 100.5C166.63 100.5 140.802 76.9328 132.5 57C124.198 37.0672 126 0 126 0C126 0 98.9962 20 81.5 46C64.0038 72 58.3703 100.5 58.3703 100.5C58.3703 100.5 41.9325 99 25.5 87.5C9.06752 76 0 57 0 57Z" fill="#F7C83E"/>
<path d="M0 139H225C225 139 215.691 150.161 215.5 159C215.309 167.839 225 179 225 179H0C0 179 11.2967 167.543 11.5 158.5C11.7033 149.457 0 139 0 139Z" fill="#F7C83E"/>
</svg>
