<svg width="561" height="305" viewBox="0 0 561 305" fill="none" xmlns="http://www.w3.org/2000/svg">
<path d="M355.081 2.25811C355.503 2.55937 355.926 2.86063 356.361 3.17102C356.72 3.42812 357.079 3.68523 357.449 3.95012C358.001 4.22361 358.001 4.22361 358.564 4.50262C359.081 3.836 359.081 3.836 359.609 3.15591C360.794 1.74015 360.794 1.74015 361.908 1.18765C365.591 1.03065 368.931 1.42247 372.533 2.15452C373.004 2.2414 373.476 2.32829 373.962 2.41781C377.014 3.02424 379.939 3.83544 382.53 5.6076C383.192 7.02337 383.192 7.02337 383.088 8.37008C382.077 9.77255 381.424 10.0247 379.744 10.5801C378.942 11.4591 378.181 12.3749 377.445 13.308C375.748 15.4176 374.023 17.4649 372.184 19.4545C369.747 22.1158 367.487 24.878 365.252 27.7074C364.673 28.4248 364.093 29.142 363.513 29.8591C348.479 47.3768 348.479 47.3768 342.401 68.5919C339.808 70.2369 337.458 69.9371 334.583 69.3559C330.219 68.2153 326.895 66.5831 324.008 63.067C322.757 60.4634 322.369 58.1868 323.218 55.3558C326.129 48.2526 331.171 42.2045 336.27 36.5473C336.721 36.0452 337.172 35.5431 337.637 35.0258C338.468 34.1085 339.301 33.1933 340.137 32.2806C342.822 29.3417 345.419 26.3373 347.974 23.2874C341.124 24.8892 334.788 26.8389 328.467 29.9174C328.086 30.0996 327.706 30.2818 327.314 30.4696C316.71 35.5972 307.436 42.6415 298.825 50.5841C297.546 51.7512 296.25 52.8754 294.921 53.9854C292.3 56.2477 290.057 58.8132 287.78 61.4095C287.264 61.9845 286.747 62.5593 286.23 63.1339C272.018 79.0725 257.64 100.629 258.698 122.758C259.013 126.174 260.078 128.956 262.49 131.404C267.498 133.334 272.378 131.829 277.19 129.919C287.33 125.379 296.031 118.738 304.501 111.686C304.847 111.401 305.194 111.115 305.551 110.82C309.582 107.492 313.4 104.051 317.07 100.334C318.243 99.1691 319.437 98.0798 320.699 97.0109C324.577 93.7179 328.098 90.0762 331.415 86.2329C332.434 85.0932 333.503 84.0254 334.598 82.9568C336.393 81.2016 338.071 79.3863 339.708 77.4858C340.409 76.6897 341.132 75.9119 341.872 75.1507C344.868 72.033 347.175 68.7178 349.482 65.0941C352.271 60.7341 355.337 56.62 358.564 52.5696C358.808 52.2621 359.052 51.9546 359.304 51.6378C363.115 46.8995 367.393 42.6015 371.697 38.3084C371.966 38.0386 372.235 37.7688 372.512 37.4908C376.216 33.789 380.089 30.404 384.202 27.1549C384.775 26.6778 385.345 26.198 385.912 25.7132C408.562 6.45768 408.562 6.45768 418.756 6.55073C420.511 6.80509 421.453 7.68996 422.66 8.92257C424.191 11.9574 423.553 16.3944 422.771 19.5797C419.952 27.3197 415.075 34.1064 409.841 40.4147C409.592 40.7156 409.343 41.0164 409.086 41.3263C401.642 50.2521 393.559 59.0708 384.664 66.5978C383.306 67.7826 382.054 69.0574 380.788 70.3367C379.782 71.3167 378.747 72.2327 377.677 73.1435C375.3 75.1927 373.006 77.3199 370.721 79.4692C367.807 82.1986 364.888 84.9219 361.943 87.6185C361.653 87.8859 361.363 88.1532 361.065 88.4287C359.71 89.6728 358.338 90.8781 356.918 92.0492C353.456 94.8125 353.456 94.8125 351.935 98.7741C351.915 99.2064 351.896 99.6387 351.876 100.084C351.821 101.015 351.821 101.015 351.765 101.964C351.656 105.508 351.619 108.044 353.548 111.134C355.583 112.479 356.155 112.586 358.564 112.239C361.918 110.72 365.832 108.483 367.482 105.057C367.314 103.726 367.314 103.726 366.924 102.294C366.093 93.5203 369.899 87.313 375.285 80.7468C378.12 77.4466 381.221 74.8258 384.864 72.4594C385.182 72.2526 385.5 72.0459 385.827 71.8329C389.261 69.7114 392.465 68.7991 396.453 69.3581C398.232 69.8934 398.91 70.9015 399.808 72.4594C401.627 77.8681 399.985 83.6982 397.502 88.6396C395.628 92.166 393.679 95.6618 391.448 98.9791C392.436 98.8229 393.423 98.6606 394.409 98.4957C394.959 98.406 395.508 98.3162 396.075 98.2238C397.691 97.94 397.691 97.94 399.251 96.7691C399.723 95.4869 400.111 94.2493 400.47 92.9362C402.98 84.4401 406.781 76.4007 410.955 68.5919C411.149 68.2297 411.342 67.8675 411.541 67.4942C418.095 55.311 427.661 38.8143 440.739 32.9215C449.055 31.9092 456.232 35.3903 462.829 40.1407C465.494 42.2578 466.998 44.314 467.529 47.7655C467.625 53.564 466.156 57.7995 463.904 63.067C463.521 64.1681 463.145 65.2718 462.789 66.382C463.177 65.9472 463.177 65.9472 463.573 65.5036C466.851 61.8603 470.215 58.3044 473.61 54.7679C479.81 48.2812 485.513 41.0183 487.781 32.2568C488.644 29.8719 489.965 27.774 492.329 26.6024C497.909 26.1634 502.712 27.7695 507.047 31.3007C508.972 33.092 509.55 34.2944 509.802 36.9084C509.757 39.7134 508.571 41.5321 507.042 43.8225C506.633 44.4608 506.633 44.4608 506.214 45.1119C505.315 46.5018 504.398 47.8794 503.476 49.2547C503.008 49.9547 503.008 49.9547 502.531 50.6688C499.863 54.6455 497.146 58.5892 494.428 62.5327C488.075 71.7637 481.951 81.1272 476.41 90.8644C476.008 91.5604 476.008 91.5604 475.599 92.2704C474.023 95.0187 472.551 97.797 471.15 100.637C471.334 100.819 471.518 101.001 471.707 101.189C476.09 96.9651 480.174 92.6903 483.969 87.9292C484.509 87.2763 485.05 86.6246 485.593 85.9739C490.071 80.5945 494.313 75.0601 498.507 69.4612C499.569 68.0469 500.638 66.6374 501.708 65.2295C505.347 60.4441 508.947 55.6357 512.473 50.7674C515.041 47.2226 517.653 43.7104 520.284 40.2107C523.698 35.6457 526.665 31.0905 529.221 26.0046C530.481 23.9897 531.791 22.5205 534.15 21.8695C539.549 21.8798 544.526 24.3385 548.622 27.7074C550.287 29.4134 550.805 30.8513 550.851 33.2323C549.632 36.4898 547.572 39.2008 545.417 41.8996C544.77 42.726 544.122 43.5526 543.475 44.3793C543.134 44.8121 542.793 45.2448 542.442 45.6907C534.93 55.2341 527.762 64.9372 521.312 75.2219C522.718 73.7498 524.122 72.276 525.527 70.8019C526.116 70.1855 526.116 70.1855 526.716 69.5567C528.929 67.2322 531.088 64.8748 533.201 62.4608C534.692 60.7747 536.239 59.1414 537.788 57.5075C538.47 56.7867 539.151 56.0659 539.833 55.345C540.179 54.9795 540.524 54.614 540.881 54.2373C541.929 53.1271 542.974 52.0137 544.017 50.8992C547.35 47.3415 550.694 43.8115 554.195 40.4147C554.56 40.0159 554.924 39.6171 555.299 39.2062C556.425 38.2048 556.425 38.2048 558.48 38.0321C560.326 38.2048 560.326 38.2048 560.884 38.7573C561.319 42.2771 560.206 44.3423 558.097 47.0447C556.21 49.3313 554.25 51.5549 552.289 53.7782C550.924 55.3313 549.58 56.9014 548.239 58.4744C547.985 58.7724 547.73 59.0703 547.469 59.3773C545.034 62.2385 542.644 65.1351 540.262 68.0395C539.706 68.7108 539.15 69.382 538.594 70.053C534.198 75.3699 529.938 80.7772 525.77 86.2718C525.448 86.6958 525.125 87.1198 524.792 87.5567C515.102 99.0727 515.102 99.0727 508.98 112.412C508.492 114.449 508.492 114.449 507.378 115.554C503.236 115.554 500.301 113.393 497.352 110.659C494.105 107.213 492.677 103.397 491.214 98.9791C490.727 99.6222 490.727 99.6222 490.23 100.278C476.187 118.685 476.187 118.685 467.235 120.792C464.735 121.051 463.322 120.303 461.326 118.834C456.917 115.088 453.32 110.797 452.605 104.908C452.34 98.3447 455.246 92.2197 457.773 86.2718C457.395 86.7247 457.017 87.1777 456.628 87.6444C453.534 91.2398 450.913 94.062 446.069 95.1117C445.414 95.1345 444.758 95.1572 444.083 95.1807C440.838 95.9996 439.212 98.6985 437.151 101.189C422.531 118.38 422.531 118.38 413.742 122.736C410.153 123.013 406.715 123.278 403.71 121.079C400.205 117.759 398.874 114.047 397.579 109.477C397.119 109.623 396.659 109.77 396.186 109.921C395.542 110.116 394.898 110.311 394.235 110.512C393.886 110.618 393.537 110.724 393.178 110.833C390.891 111.485 388.778 111.787 386.406 111.899C381.281 112.189 379.003 113.981 375.509 117.559C368.783 124.4 358.138 131.083 348.253 131.231C345.294 131.154 343.057 130.681 340.729 128.814C335.749 123.507 335.443 116.397 335.538 109.511C335.537 108.863 335.535 108.216 335.533 107.548C335.56 103.131 336.032 98.9032 336.827 94.5592C332.451 99.2049 332.451 99.2049 328.188 103.952C322.862 110.037 317.185 115.777 311.431 121.463C310.206 122.675 308.983 123.891 307.76 125.106C306.967 125.892 306.174 126.677 305.38 127.463C305.022 127.819 304.664 128.175 304.295 128.543C293.082 139.601 278.804 152.732 262.258 152.745C254.294 152.631 248.579 149.991 242.774 144.664C236.281 137.833 234.651 129.051 234.831 119.974C235.666 103.422 244.699 86.7412 254.339 73.5644C254.636 73.1531 254.932 72.7418 255.238 72.318C260.474 65.0713 266.035 58.2631 272.087 51.6718C272.872 50.8148 273.65 49.9517 274.421 49.082C279.596 43.2626 285.131 37.6743 291.124 32.6798C291.662 32.2083 292.199 31.7369 292.753 31.2511C303.063 22.237 340.258 -8.5089 355.081 2.25811ZM400.366 29.9174C400.096 30.1915 399.825 30.4657 399.547 30.7482C397.725 32.5785 395.904 34.3705 393.921 36.0293C391.588 38.0211 389.412 40.1598 387.233 42.3139C386.885 42.6569 386.536 42.9999 386.177 43.3532C382.313 47.1958 378.799 51.3208 375.32 55.5047C374.813 56.1131 374.813 56.1131 374.297 56.7337C371.71 59.8641 369.256 63.0587 366.924 66.382C367.108 66.7466 367.292 67.1113 367.482 67.487C370.191 64.816 372.897 62.1427 375.602 59.468C376.521 58.5598 377.44 57.6521 378.36 56.7449C379.689 55.435 381.015 54.1234 382.341 52.8113C382.748 52.4112 383.154 52.011 383.573 51.5987C386.128 49.0665 388.541 46.449 390.891 43.7297C391.459 43.086 392.028 42.4427 392.598 41.8003C395.791 38.1649 398.812 34.5123 401.48 30.4698C401.113 30.2875 400.745 30.1052 400.366 29.9174ZM443.282 54.7796C433.416 64.6168 418.205 86.4093 418.062 100.74C418.108 101.253 418.154 101.766 418.201 102.294C421.529 100.297 424.272 97.7227 427.119 95.1117C427.448 94.8346 427.777 94.5576 428.116 94.2721C428.988 93.5501 428.988 93.5501 429.905 92.3492C429.834 91.0663 429.834 91.0663 429.348 89.5867C427.916 78.6714 436.361 66.0201 442.542 57.6025C443.43 56.4328 443.43 56.4328 443.282 54.7796ZM520.197 75.7744C520.754 76.8794 520.754 76.8794 520.754 76.8794L520.197 75.7744Z" fill="#F3B315"/>
<path d="M137.304 29.175C140.462 32.0748 142.48 35.5814 143 39.8472C143.203 45.5069 140.902 49.9917 137.294 54.2272C136.891 54.7627 136.489 55.2983 136.074 55.8501C133.862 58.4335 131.049 60.428 128.376 62.5146C127.855 62.9355 127.334 63.3564 126.797 63.7901C121.142 68.2647 115.005 71.9889 108.868 75.7744C108.001 76.3117 107.134 76.849 106.267 77.3866C105.654 77.7662 105.041 78.1458 104.41 78.5369C105.177 78.7281 105.177 78.7281 105.96 78.9232C111.661 80.4252 115.89 82.0011 119.458 86.8243C122.002 91.8685 120.257 100.834 118.567 106.015C113.283 120.808 104.246 134.247 93.8199 145.941C93.253 146.595 93.253 146.595 92.6747 147.262C82.9368 158.305 74.4402 166.567 59.264 168.593C56.8578 168.751 54.464 168.773 52.0532 168.766C51.4457 168.775 50.8383 168.784 50.2124 168.793C42.0928 168.798 34.34 166.553 28.2219 161.077C27.4948 160.306 27.4948 160.306 26.3801 158.649C24.3943 164.054 24.3943 164.054 24.1506 169.698C24.3346 170.052 24.5185 170.405 24.708 170.769C25.6002 172.593 25.6289 174.373 25.2653 176.328C24.246 178.426 22.9341 179.484 20.702 180.265C14.6387 180.068 9.91984 176.249 5.89729 172.047C1.57631 166.899 -0.13335 160.346 0.00806019 153.739C2.26589 131.716 20.4095 111.394 33.6257 94.5592C34.0951 93.9519 34.5639 93.344 35.0321 92.7356C38.0167 88.8593 41.083 85.0596 44.2154 81.2994C45.0166 80.3211 45.8178 79.3427 46.619 78.3643C49.3751 75.025 52.2107 71.7559 55.052 68.4879C55.9168 67.4906 56.7778 66.4901 57.6376 65.4886C60.216 62.488 62.8083 59.5125 65.4994 56.6098C67.8322 54.0918 70.0278 51.4857 72.1876 48.8209C73.1978 47.5972 73.1978 47.5972 74.3125 46.4923C74.646 45.6521 74.9451 44.7982 75.2182 43.937C75.3633 43.4854 75.5085 43.0339 75.658 42.5687C75.7658 42.2226 75.8735 41.8764 75.9846 41.5198C48.8123 48.3363 48.8123 48.3363 26.9374 64.1721C26.1835 66.634 26.1346 67.5789 27.3554 69.8697C28.5536 71.43 28.5536 71.43 30.2815 72.4595C29.795 74.5816 29.3506 75.6096 27.7038 77.0866C24.9567 78.3978 22.9032 78.3847 20.0358 77.6391C13.4119 75.3338 8.62621 70.4463 5.23543 64.4828C4.22365 61.12 4.03797 57.9306 5.51411 54.6761C8.07792 50.4079 11.7916 47.8545 16.1038 45.4909C16.6189 45.2063 17.134 44.9218 17.6647 44.6287C45.8781 29.2839 108.583 5.82537 137.304 29.175ZM91.0331 37.0999C91.7986 38.6174 92.6982 38.808 94.2379 39.517C99.3423 41.971 99.3423 41.971 100.508 44.2823C100.847 46.6816 100.682 48.1874 99.2541 50.118C98.5698 50.9455 97.8707 51.7609 97.164 52.5697C96.6521 53.1651 96.1405 53.7607 95.6291 54.3567C94.4763 55.696 93.3179 57.0302 92.1566 58.3622C90.3084 60.4886 88.5193 62.6599 86.7376 64.8411C85.7988 65.9731 84.8509 67.09 83.8855 68.1992C81.1682 71.3246 78.6081 74.3825 76.5419 77.9844C79.1991 77.0581 81.5022 75.6724 83.892 74.2206C84.3293 73.955 84.7665 73.6894 85.217 73.4158C107.237 60.0854 107.237 60.0854 121.633 40.3371C121.838 38.7854 121.838 38.7854 121.054 37.7797C113.148 32.6042 99.6964 35.3187 91.0331 37.0999ZM74.6791 94.2145C73.1146 94.5786 71.5441 94.8948 69.9691 95.211C68.8852 95.4525 67.8017 95.6956 66.7186 95.9405C66.2171 96.0342 65.7157 96.128 65.199 96.2246C60.813 97.2879 58.9784 99.8529 56.5788 103.504C55.8935 104.544 55.1883 105.569 54.4777 106.593C52.916 108.852 51.385 111.13 49.8586 113.413C49.5888 113.816 49.3191 114.218 49.0411 114.632C42.9299 123.754 37.2397 133.01 31.9536 142.626C33.4405 144.66 34.6766 145.841 36.9698 146.908C37.4411 147.133 37.9124 147.358 38.398 147.59C43.0071 149.494 48.869 149.391 53.5859 147.875C56.8745 146.495 59.4091 144.42 62.0507 142.074C62.5141 141.674 62.9775 141.275 63.455 140.863C84.8484 121.989 84.8483 121.989 94.9346 96.2167C94.6766 94.6552 94.6766 94.6552 93.8199 93.4543C87.9659 90.5629 80.6971 92.7635 74.6791 94.2145Z" fill="#F3B315"/>
<path d="M214.523 52.9496C216.173 53.1592 217.431 52.7244 219.013 52.2892C222.163 51.6441 225.67 51.3462 228.59 52.7877C229.816 53.6747 229.816 53.6747 230.373 54.7797C231.15 69.3509 216.599 89.1069 207.371 99.9073C204.207 103.259 200.919 105.812 196.22 106.384C192.706 106.484 189.979 106.208 186.9 104.504C186.71 105.137 186.71 105.137 186.516 105.782C185.909 107.474 185.23 109.03 184.461 110.651C181.685 116.641 179.289 123.229 179.654 129.919C185.323 125.25 190.507 120.075 195.084 114.352C197.119 111.892 199.322 109.592 201.511 107.267C203.051 105.629 204.543 103.954 206.022 102.262C211.819 95.6652 217.865 89.2784 223.894 82.89C225.596 81.0861 227.292 79.2762 228.987 77.4652C230.271 76.0965 231.564 74.7357 232.857 73.3749C233.644 72.5379 234.415 71.6868 235.185 70.8344C238.154 67.6467 238.154 67.6467 239.885 67.1698C240.963 67.1418 240.963 67.1418 242.635 67.4871C243.192 68.0396 243.192 68.0396 243.471 69.628C243.381 74.4979 238.703 78.779 235.564 82.1174C233.814 84.0065 232.204 85.9942 230.578 87.9876C229.435 89.3732 228.27 90.7363 227.092 92.093C220.574 99.6225 214.761 107.64 209.071 115.794C207.743 117.692 206.405 119.582 205.066 121.472C202.363 125.29 199.67 129.116 197.002 132.958C196.753 133.315 196.504 133.673 196.247 134.041C195.106 135.688 193.981 137.342 192.893 139.024C190.238 143.109 187.933 146.355 183.109 147.94C179.67 148.533 176.593 147.378 173.697 145.596C168.632 141.912 165.828 137.397 164.261 131.354C163.315 124.99 164.254 118.976 165.72 112.792C165.91 111.872 166.097 110.951 166.277 110.029C161.382 116.297 156.883 122.844 152.344 129.366C152.051 129.786 151.759 130.205 151.458 130.638C149.068 134.072 146.687 137.511 144.325 140.964C144.002 141.436 143.679 141.907 143.346 142.393C142.721 143.304 142.098 144.217 141.476 145.13C136.13 152.924 136.13 152.924 131.164 154.229C127.277 154.566 123.747 153.034 120.574 150.914C116.369 147.285 113.106 141.987 112.673 136.377C112.084 112.112 125.625 88.799 141.926 71.2531C143.93 69.1746 145.951 67.115 147.989 65.0699C148.367 64.6883 148.745 64.3067 149.134 63.9135C154.156 58.9272 154.156 58.9272 156.974 58.4119C157.562 58.4429 157.562 58.4429 158.161 58.4745C158.591 58.4923 159.022 58.5101 159.465 58.5285C160.535 58.631 161.597 58.8052 162.655 58.9925C164.793 59.2196 166.263 58.8759 168.32 58.3644C171.433 57.7193 174.58 57.6614 177.425 59.1997C178.539 60.3047 178.539 60.3047 178.683 61.3104C178.053 72.1522 167.68 85.6403 160.245 92.9709C158.089 94.8122 156.234 95.8674 153.389 96.1822C152.68 96.2752 152.68 96.2752 151.956 96.37C150.672 96.2168 150.672 96.2168 149.631 95.2866C148.844 93.6907 149.043 92.9122 149.557 91.2443C139.571 103.144 126.387 119.495 127.263 135.996C129.155 135.996 130.296 134.392 131.617 133.165C131.937 132.869 132.258 132.573 132.587 132.268C137.625 127.554 142.229 122.491 146.557 117.132C148.753 114.523 151.116 112.07 153.46 109.593C154.706 108.276 155.926 106.942 157.116 105.575C159.62 102.702 162.242 99.9352 164.847 97.1518C165.681 96.2589 166.513 95.3642 167.344 94.4686C170.091 91.5104 172.85 88.5641 175.629 85.6353C181.912 79.0613 181.912 79.0613 187.631 72.0106C190.31 68.4234 193.265 65.177 196.375 61.9621C196.653 61.671 196.932 61.3799 197.219 61.08C206.958 50.9375 206.958 50.9375 214.523 52.9496ZM205.292 79.0895C201.242 83.9619 197.247 88.835 193.588 94.0068C193.772 94.3714 193.956 94.7361 194.145 95.1118C200.328 91.5161 203.396 86.8764 205.85 80.1944C205.666 79.8298 205.482 79.4652 205.292 79.0895Z" fill="#F3B315"/>
<path d="M204.099 241.015C204.099 239.348 203.641 238.14 202.724 237.39C201.891 236.64 200.557 236.057 198.724 235.64V228.14C200.641 227.723 202.016 227.015 202.849 226.015C203.682 225.015 204.099 223.848 204.099 222.515V185.015C204.099 182.348 203.224 181.015 201.474 181.015C199.641 181.015 198.724 182.348 198.724 185.015V220.265H188.974V185.765C188.974 177.432 193.141 173.265 201.474 173.265C209.641 173.265 213.724 177.432 213.724 185.765V221.515C213.724 227.682 211.307 231.057 206.474 231.64C209.307 232.057 211.224 232.89 212.224 234.14C213.224 235.39 213.724 237.473 213.724 240.39V271.265C213.724 275.432 212.766 278.557 210.849 280.64C208.932 282.723 205.807 283.765 201.474 283.765C193.141 283.765 188.974 279.598 188.974 271.265V240.39H198.724V271.64C198.724 274.307 199.641 275.64 201.474 275.64C203.224 275.64 204.099 274.307 204.099 271.64V241.015ZM233.655 282.265V174.89H245.155C254.238 174.89 258.78 178.807 258.78 186.64V219.39C258.78 224.807 255.571 228.057 249.155 229.14V229.515C255.571 230.265 258.78 233.307 258.78 238.64V270.515C258.78 278.348 254.238 282.265 245.155 282.265H233.655ZM248.905 186.515C248.905 183.682 247.738 182.265 245.405 182.265H243.28V225.39H245.405C247.738 225.39 248.905 223.973 248.905 221.14V186.515ZM248.905 237.39C248.905 234.64 247.738 233.265 245.405 233.265H243.28V274.265H245.405C247.738 274.265 248.905 272.848 248.905 270.015V237.39ZM278.699 282.265V174.89H290.199C299.282 174.89 303.824 178.807 303.824 186.64V224.265C303.824 228.598 302.699 231.682 300.449 233.515C298.199 235.348 294.157 236.265 288.324 236.265V282.265H278.699ZM293.949 186.64C293.949 183.807 292.782 182.39 290.449 182.39H288.324V228.515H290.449C292.782 228.515 293.949 227.098 293.949 224.265V186.64ZM324.597 282.265V230.265C320.847 230.265 318.972 231.598 318.972 234.265V270.14C318.972 276.307 318.556 280.348 317.722 282.265H307.597C308.681 279.848 309.222 275.932 309.222 270.515V235.515C309.222 229.848 312.389 226.765 318.722 226.265C312.389 225.015 309.222 221.307 309.222 215.14V186.64C309.222 178.807 313.764 174.89 322.847 174.89H334.222V282.265H324.597ZM324.597 182.39H322.597C320.181 182.39 318.972 183.765 318.972 186.515V217.89C318.972 220.807 320.181 222.265 322.597 222.265H324.597V182.39ZM368.065 291.765V282.265H345.44V291.765H338.19V273.89H340.44C342.44 273.89 343.44 272.557 343.44 269.89V174.89H368.065V273.89H375.315V291.765H368.065ZM358.565 183.89H353.065V263.015C353.065 268.348 351.315 271.973 347.815 273.89H358.565V183.89Z" fill="#F3B315"/>
</svg>
