<svg width="227" height="168" viewBox="0 0 227 168" fill="none" xmlns="http://www.w3.org/2000/svg">
<path d="M95.3461 52.8711C97.2354 54.1943 98.5839 55.7852 99.0044 58.0881C99.0224 58.7647 99.029 59.4336 99.0207 60.1097C99.0195 60.2916 99.0184 60.4736 99.0171 60.661C99.0141 61.1076 99.0094 61.5543 99.0044 62.0009C99.2381 61.9858 99.4719 61.9706 99.7127 61.955C102.19 61.8628 103.929 62.1113 105.815 63.783C107.853 65.9323 108.001 68.0244 107.938 70.8698C107.934 71.1715 107.931 71.4731 107.927 71.7838C107.918 72.5227 107.905 73.2613 107.889 74C108.122 73.9849 108.356 73.9698 108.597 73.9542C111.069 73.8621 112.829 74.1016 114.699 75.7914C116.635 77.861 117.075 80.0129 117.069 82.7988C117.07 82.9969 117.07 83.195 117.071 83.3991C117.073 84.0604 117.072 84.7216 117.072 85.3829C117.073 85.8583 117.074 86.3336 117.075 86.8089C117.077 88.0994 117.078 89.3898 117.078 90.6802C117.078 91.4884 117.079 92.2965 117.079 93.1047C117.082 95.9298 117.083 98.755 117.083 101.58C117.083 104.203 117.085 106.827 117.089 109.45C117.093 111.709 117.094 113.967 117.094 116.226C117.094 117.572 117.095 118.918 117.097 120.264C117.1 121.533 117.1 122.803 117.098 124.072C117.098 124.534 117.098 124.996 117.1 125.458C117.108 127.808 117.043 130.129 116.803 132.468C116.783 132.666 116.762 132.863 116.742 133.066C115.91 140.393 111.954 147.6 106.168 152.211C104.489 153.501 102.734 154.689 100.983 155.877C99.5749 156.832 98.1796 157.805 96.7833 158.777C94.394 160.438 92.0003 162.092 89.5975 163.733C89.2374 163.979 89.2374 163.979 88.8701 164.23C88.0785 164.771 87.2866 165.312 86.4945 165.852C86.2409 166.026 85.9872 166.199 85.7259 166.378C85.4898 166.538 85.2537 166.699 85.0104 166.865C84.7989 167.009 84.5874 167.154 84.3695 167.302C83.3699 167.961 82.7015 167.988 81.4971 167.906C80.5724 167.476 80.2401 167.198 79.668 166.341C79.571 165.74 79.571 165.74 79.5537 165.07C79.5432 164.85 79.5328 164.63 79.522 164.403C79.8463 162.914 81.3928 162.085 82.575 161.255C82.7325 161.144 82.89 161.033 83.0522 160.919C84.556 159.864 86.0745 158.83 87.5932 157.797C89.5452 156.468 91.4845 155.122 93.4223 153.773C94.7295 152.863 96.0393 151.958 97.3557 151.062C104.019 146.521 108.997 141.532 110.635 133.329C111.084 130.771 111.096 128.27 111.088 125.683C111.088 125.195 111.089 124.708 111.089 124.22C111.091 122.906 111.089 121.592 111.086 120.279C111.084 118.901 111.084 117.524 111.084 116.146C111.084 113.836 111.082 111.527 111.078 109.217C111.074 106.545 111.073 103.874 111.073 101.202C111.073 98.3554 111.071 95.5084 111.069 92.6614C111.068 91.8412 111.068 91.021 111.068 90.2007C111.068 88.9148 111.066 87.6289 111.063 86.3429C111.063 85.8705 111.062 85.398 111.062 84.9255C111.063 84.2823 111.061 83.6391 111.059 82.9959C111.06 82.8076 111.06 82.6194 111.06 82.4254C111.057 81.6305 111.017 81.0212 110.763 80.2605C109.886 80.0609 109.886 80.0609 108.934 79.9996C108.368 80.3971 108.177 80.6357 108.052 81.3189C108.052 81.5261 108.053 81.7334 108.053 81.9469C108.051 82.1853 108.049 82.4238 108.047 82.6694C108.049 82.9304 108.051 83.1914 108.054 83.4604C108.053 83.7357 108.052 84.011 108.051 84.2947C108.049 84.8934 108.049 85.492 108.051 86.0907C108.053 87.0379 108.05 87.9849 108.046 88.9321C108.036 91.6253 108.035 94.3185 108.036 97.0117C108.036 98.6583 108.031 100.305 108.023 101.951C108.02 102.885 108.024 103.819 108.027 104.752C108.024 105.325 108.022 105.897 108.019 106.469C108.021 106.729 108.024 106.989 108.027 107.257C108.015 108.395 107.999 109.036 107.391 110.022C106.476 110.853 105.779 110.883 104.577 110.872C103.534 110.714 103.105 110.248 102.401 109.476C102.08 108.595 102.105 107.725 102.102 106.795C102.1 106.459 102.099 106.122 102.097 105.776C102.096 105.403 102.095 105.031 102.095 104.659C102.093 104.266 102.091 103.874 102.089 103.481C102.086 102.636 102.082 101.792 102.08 100.947C102.076 99.612 102.07 98.2771 102.063 96.9423C102.044 93.1468 102.029 89.3512 102.015 85.5557C102.008 83.4591 101.999 81.3625 101.988 79.266C101.981 77.9381 101.976 76.6101 101.973 75.2822C101.971 74.4576 101.966 73.6331 101.961 72.8086C101.959 72.4252 101.958 72.0418 101.958 71.6584C101.957 71.1366 101.954 70.6148 101.95 70.093C101.948 69.6543 101.948 69.6543 101.946 69.2067C101.948 68.4809 101.948 68.4809 101.356 68.0005C100.572 67.9135 100.572 67.9135 99.7883 68.0005C99.2007 68.4769 99.2007 68.4769 99.2009 69.1727C99.2013 69.5873 99.2013 69.5873 99.2017 70.0103C99.2007 70.327 99.1996 70.6437 99.1986 70.97C99.2001 71.3229 99.2016 71.6758 99.2031 72.0286C99.2028 72.3988 99.2023 72.769 99.2015 73.1392C99.2003 73.9375 99.2006 74.7359 99.202 75.5342C99.2039 76.797 99.2012 78.0597 99.1975 79.3225C99.1876 82.9138 99.1829 86.505 99.1859 90.0963C99.1875 92.0788 99.1845 94.0613 99.1763 96.0438C99.1715 97.2986 99.1723 98.5533 99.1774 99.8081C99.1792 100.59 99.1756 101.372 99.1704 102.154C99.1691 102.516 99.17 102.878 99.1733 103.239C99.1995 106.314 99.1995 106.314 98.3735 107.339C97.442 108.127 96.8691 108.275 95.635 108.264C94.6522 108.099 94.1956 107.578 93.517 106.867C93.2139 105.959 93.2182 105.148 93.2197 104.203C93.2189 104.011 93.2182 103.818 93.2174 103.619C93.2152 102.971 93.2149 102.322 93.2145 101.674C93.2133 101.21 93.2119 100.746 93.2105 100.282C93.2075 99.2821 93.2053 98.2821 93.2037 97.2821C93.2009 95.7017 93.1956 94.1214 93.1898 92.5411C93.1736 88.047 93.1595 83.5529 93.1508 79.0587C93.1461 76.5774 93.1385 74.096 93.1278 71.6146C93.1223 70.3009 93.1183 68.9871 93.1177 67.6734C93.1171 66.4384 93.113 65.2035 93.1061 63.9685C93.1042 63.5146 93.1037 63.0606 93.1046 62.6066C93.1056 61.9883 93.1018 61.3702 93.0968 60.752C93.099 60.4806 93.099 60.4806 93.1012 60.2038C93.0909 59.4671 93.0662 58.9768 92.6471 58.3578C92.1797 58.0096 92.1797 58.0096 91.3939 58.1533C90.6746 58.2732 90.6746 58.2732 90.3814 58.6098C90.3546 59.1576 90.3465 59.7063 90.3453 60.2548C90.3446 60.4286 90.3438 60.6024 90.3431 60.7815C90.3409 61.3682 90.3406 61.9549 90.3402 62.5416C90.339 62.9606 90.3376 63.3796 90.3362 63.7985C90.3332 64.7031 90.331 65.6076 90.3293 66.5122C90.3265 67.9426 90.3213 69.373 90.3154 70.8033C90.2993 74.8716 90.2852 78.9399 90.2765 83.0083C90.2717 85.2534 90.2642 87.4985 90.2535 89.7436C90.248 90.9322 90.244 92.1207 90.2434 93.3093C90.2428 94.428 90.2387 95.5467 90.2318 96.6653C90.2299 97.0756 90.2293 97.486 90.2302 97.8963C90.2313 98.4572 90.2275 99.0179 90.2225 99.5789C90.2217 99.8926 90.2208 100.206 90.2199 100.529C90.0842 101.699 89.6836 102.569 88.8952 103.444C88.0055 103.876 87.1603 103.88 86.2006 103.737C85.2636 103.31 84.9481 103.035 84.3714 102.172C84.3052 101.492 84.3052 101.492 84.3039 100.659C84.3022 100.343 84.3004 100.028 84.2985 99.7024C84.2992 99.3521 84.2998 99.0018 84.3006 98.6516C84.2994 98.2831 84.298 97.9146 84.2964 97.5461C84.2934 96.7523 84.292 95.9585 84.2917 95.1647C84.2912 93.9097 84.2865 92.6547 84.2811 91.3998C84.2682 88.2825 84.2602 85.1653 84.2546 82.048C84.2503 79.6258 84.2444 77.2035 84.2329 74.7813C84.2272 73.5336 84.2251 72.2859 84.2257 71.0381C84.2253 70.262 84.2216 69.4859 84.217 68.7098C84.2156 68.3498 84.2154 67.9897 84.2168 67.6297C84.2184 67.1383 84.2147 66.647 84.2108 66.1556C84.2103 65.8806 84.2097 65.6056 84.2092 65.3222C84.0961 64.5088 83.8992 64.148 83.3262 63.566C82.673 63.3921 82.673 63.3921 82.0197 63.566C81.3414 64.206 81.238 64.5887 81.1374 65.5245C81.1333 65.8987 81.1334 66.273 81.1369 66.6473C81.1351 66.9572 81.1351 66.9572 81.1333 67.2734C81.1303 67.9665 81.1328 68.6595 81.1353 69.3526C81.1342 69.8492 81.1328 70.3458 81.131 70.8424C81.1279 71.9122 81.1273 72.9819 81.1285 74.0517C81.1303 75.7429 81.1261 77.434 81.1211 79.1252C81.1112 82.7154 81.1078 86.3055 81.1052 89.8957C81.1023 93.7704 81.0983 97.6451 81.0867 101.52C81.0819 103.201 81.0809 104.883 81.0827 106.564C81.0831 107.61 81.0803 108.656 81.0766 109.702C81.0756 110.187 81.0759 110.672 81.0776 111.157C81.0798 111.82 81.0772 112.481 81.0734 113.144C81.0761 113.432 81.0761 113.432 81.0789 113.727C81.066 114.877 80.8907 115.599 80.1906 116.519C79.2965 117.188 78.4016 117.136 77.3163 117.04C76.4394 116.682 76.0921 116.389 75.5873 115.588C75.1403 114.481 75.1162 113.589 75.1253 112.409C75.1239 112.185 75.1225 111.961 75.121 111.73C75.1185 111.245 75.1177 110.76 75.1185 110.276C75.1197 109.508 75.116 108.741 75.1111 107.973C75.0999 106.067 75.097 104.161 75.0938 102.255C75.0908 100.643 75.0846 99.0312 75.0743 97.4192C75.0707 96.6641 75.0718 95.909 75.0731 95.1538C75.0706 94.6896 75.068 94.2253 75.0651 93.761C75.0667 93.552 75.0683 93.343 75.0699 93.1277C75.0562 91.8711 74.913 90.9795 74.1806 89.912C73.6651 89.5537 73.1431 89.2046 72.6128 88.8686C72.5884 94.6869 72.57 100.505 72.5587 106.323C72.5533 109.025 72.5459 111.727 72.534 114.428C72.5235 116.783 72.5168 119.138 72.5145 121.493C72.5131 122.739 72.5099 123.986 72.5023 125.233C72.4952 126.407 72.493 127.581 72.4946 128.755C72.4943 129.185 72.4922 129.615 72.4882 130.046C72.483 130.635 72.4843 131.223 72.4871 131.812C72.4857 132.306 72.4857 132.306 72.4842 132.81C72.6469 133.98 72.9904 134.588 73.658 135.561C74.3989 135.994 74.3989 135.994 75.2258 136.229C76.2541 136.614 76.7408 136.81 77.5122 137.615C77.9006 138.584 77.9709 139.221 77.8389 140.256C77.3447 141.242 76.8493 141.794 75.9322 142.397C75.7063 142.548 75.4804 142.699 75.2476 142.854C74.8811 143.093 74.8811 143.093 74.5073 143.338C73.9841 143.686 73.4612 144.035 72.9384 144.384C72.6686 144.563 72.3987 144.743 72.1207 144.927C70.8197 145.799 69.5363 146.696 68.2523 147.593C66.4454 148.851 64.6343 150.103 62.814 151.342C60.7002 152.781 58.599 154.238 56.4998 155.698C55.0802 156.686 53.6583 157.67 52.2312 158.646C50.5273 159.812 48.831 160.989 47.1358 162.168C45.3412 163.415 43.5465 164.662 41.7465 165.901C41.5812 166.015 41.416 166.129 41.2458 166.247C38.5254 168.116 38.5254 168.116 36.8144 167.906C35.9742 167.527 35.4345 167.23 35.0057 166.393C34.7077 165.459 34.7128 164.833 34.9036 163.863C35.559 162.622 36.7613 161.938 37.904 161.181C38.4274 160.833 38.946 160.479 39.4641 160.124C40.2948 159.554 41.1269 158.986 41.9598 158.42C43.4465 157.407 44.9241 156.381 46.4009 155.353C48.0797 154.185 49.7595 153.019 51.4473 151.864C53.4143 150.518 55.3711 149.157 57.328 147.797C58.7777 146.789 60.23 145.785 61.6871 144.788C62.1807 144.45 62.6741 144.111 63.1675 143.771C63.5823 143.487 63.9976 143.203 64.413 142.919C65.1442 142.419 65.8736 141.916 66.6029 141.414C66.836 141.255 67.0692 141.096 67.3094 140.933C67.5235 140.784 67.7377 140.636 67.9584 140.483C68.2469 140.285 68.2469 140.285 68.5412 140.083C68.6776 139.968 68.814 139.853 68.9546 139.735C68.9546 138.863 68.3091 138.275 67.8063 137.59C66.3377 135.053 66.488 132.451 66.4931 129.618C66.4912 129.12 66.489 128.623 66.4864 128.125C66.4806 126.779 66.4799 125.433 66.4803 124.087C66.4804 122.962 66.4781 121.838 66.476 120.714C66.4709 118.063 66.4702 115.413 66.472 112.763C66.4737 110.026 66.4677 107.29 66.458 104.554C66.45 102.205 66.447 99.8548 66.448 97.505C66.4486 96.1017 66.4471 94.6985 66.4408 93.2952C66.435 91.9776 66.4354 90.6601 66.4407 89.3424C66.4416 88.8582 66.4403 88.3739 66.4366 87.8897C66.4318 87.2302 66.4351 86.5713 66.4405 85.9119C66.4372 85.7188 66.4339 85.5258 66.4306 85.3269C66.4399 84.7924 66.4399 84.7924 66.6029 83.9124C67.9827 82.8052 69.4207 82.8215 71.1267 82.8201C71.3185 82.8169 71.5103 82.8137 71.708 82.8104C71.8978 82.8099 72.0876 82.8094 72.2831 82.8089C72.453 82.8078 72.6229 82.8067 72.7979 82.8056C73.6385 82.8946 74.4163 83.1536 75.2258 83.3907C75.2232 83.0366 75.2232 83.0366 75.2206 82.6754C75.2048 80.4421 75.1929 78.2088 75.1852 75.9754C75.1811 74.8275 75.1756 73.6796 75.1667 72.5316C75.1581 71.4221 75.1535 70.3126 75.1515 69.2031C75.15 68.7815 75.1472 68.3599 75.143 67.9383C75.1115 64.6963 75.2263 61.8605 77.5776 59.3924C79.6052 57.5637 81.7377 57.4887 84.3714 57.5664C84.4811 57.3158 84.4811 57.3158 84.5929 57.06C85.5987 54.8938 86.6291 53.4119 88.8952 52.4961C91.0853 51.8023 93.2785 51.7922 95.3461 52.8711Z" fill="#F7C83E"/>
<path d="M136.248 34.7997C137.815 35.9545 138.601 37.4663 139.367 39.2232C139.584 39.2111 139.801 39.1991 140.025 39.1866C142.401 39.1103 144.053 39.4243 145.948 40.882C147.512 42.4109 148.251 43.9763 148.288 46.1698C148.289 46.354 148.289 46.5382 148.29 46.7279C148.294 47.0252 148.294 47.0252 148.298 47.3285C148.306 47.9789 148.31 48.6293 148.314 49.2798C148.319 49.7326 148.324 50.1854 148.33 50.6382C148.343 51.8266 148.353 53.0149 148.363 54.2033C148.373 55.4173 148.387 56.6313 148.4 57.8453C148.425 60.2247 148.447 62.6042 148.467 64.9837C148.666 64.9006 148.864 64.8175 149.069 64.7319C151.409 63.8303 153.957 64.1511 156.266 64.9837C156.523 65.1554 156.781 65.3271 157.046 65.5041C157.124 66.1455 157.151 66.7222 157.145 67.3644C157.146 67.5583 157.148 67.7522 157.149 67.952C157.152 68.6053 157.149 69.2586 157.147 69.9119C157.148 70.3791 157.149 70.8462 157.151 71.3134C157.155 72.5862 157.153 73.8589 157.151 75.1317C157.149 76.4656 157.151 77.7995 157.152 79.1334C157.153 81.378 157.151 83.6226 157.148 85.8672C157.143 88.4532 157.145 91.0391 157.149 93.6251C157.153 95.8489 157.153 98.0727 157.151 100.297C157.15 101.623 157.15 102.949 157.152 104.276C157.155 105.527 157.153 106.778 157.149 108.03C157.148 108.485 157.148 108.941 157.15 109.397C157.165 113.745 156.593 117.649 154.966 121.709C155.112 121.778 155.258 121.847 155.408 121.918C158.305 123.424 160.958 125.581 163.631 127.447C164.812 128.271 165.997 129.09 167.185 129.905C168.864 131.057 170.536 132.221 172.206 133.386C174.037 134.662 175.871 135.933 177.714 137.191C179.606 138.482 181.489 139.785 183.369 141.094C183.62 141.269 183.871 141.443 184.129 141.623C184.808 142.096 185.486 142.571 186.164 143.046C186.35 143.176 186.537 143.306 186.729 143.44C188.284 144.534 188.284 144.534 188.504 145.388C188.651 146.699 188.653 147.213 187.984 148.364C187.151 149.075 186.734 149.242 185.685 149.365C184.201 149.169 182.958 148.131 181.76 147.29C181.496 147.107 181.496 147.107 181.227 146.92C180.619 146.497 180.012 146.072 179.404 145.648C178.919 145.31 178.434 144.972 177.949 144.634C177.177 144.097 176.405 143.559 175.633 143.021C174.206 142.027 172.778 141.037 171.345 140.053C169.387 138.71 167.44 137.352 165.492 135.995C163.908 134.891 162.32 133.791 160.726 132.699C159.682 131.983 158.643 131.259 157.606 130.532C157.339 130.346 157.072 130.159 156.797 129.966C156.271 129.598 155.745 129.229 155.221 128.859C153.952 127.971 152.688 127.132 151.327 126.392C151.169 126.543 151.011 126.694 150.849 126.85C147.58 129.9 143.673 131.823 139.172 132.198C138.005 132.086 137.4 131.684 136.556 130.897C136.107 130.021 135.993 129.157 136.248 128.214C137.072 126.93 137.709 126.481 139.181 126.133C139.382 126.09 139.583 126.046 139.79 126.002C143.562 125.063 146.769 123.238 148.846 119.824C150.329 117.228 151.092 114.809 151.108 111.805C151.109 111.626 151.11 111.447 151.112 111.263C151.116 110.667 151.118 110.072 151.12 109.476C151.122 109.048 151.125 108.619 151.128 108.191C151.135 107.03 151.14 105.87 151.145 104.709C151.151 103.496 151.158 102.282 151.165 101.068C151.178 98.7707 151.19 96.4734 151.201 94.176C151.214 91.5601 151.228 88.9442 151.243 86.3283C151.272 80.9482 151.3 75.568 151.327 70.1878C150.258 70.8824 149.412 71.4375 148.727 72.5297C148.38 74.2171 148.422 75.9224 148.413 77.6392C148.411 77.9669 148.408 78.2945 148.406 78.6321C148.399 79.526 148.393 80.42 148.388 81.3139C148.382 82.2498 148.375 83.1857 148.368 84.1216C148.355 85.8918 148.343 87.6621 148.332 89.4323C148.319 91.4485 148.305 93.4647 148.291 95.4809C148.261 99.6265 148.233 103.772 148.207 107.918C147.906 107.928 147.605 107.937 147.295 107.947C146.895 107.964 146.495 107.982 146.094 107.999C145.897 108.005 145.699 108.011 145.495 108.017C144.026 108.087 142.976 108.419 141.762 109.294C141.296 109.953 141.229 110.608 141.09 111.398C140.865 112.422 140.689 113.088 140.131 113.984C139.015 114.625 138.023 114.687 136.768 114.423C136.033 113.853 135.62 113.426 135.208 112.602C134.937 110.082 135.509 107.868 136.93 105.771C138.454 103.899 140.195 102.999 142.487 102.453C142.465 95.0664 142.441 87.6793 142.412 80.2923C142.399 76.8626 142.387 73.4329 142.378 70.0032C142.369 67.0149 142.359 64.0266 142.346 61.0383C142.34 59.4551 142.334 57.8719 142.33 56.2886C142.327 54.8 142.321 53.3115 142.314 51.8229C142.311 51.2751 142.31 50.7273 142.309 50.1795C142.308 49.4345 142.304 48.6895 142.3 47.9445C142.3 47.6157 142.3 47.6157 142.301 47.2802C142.338 46.1214 142.338 46.1214 141.707 45.208C140.927 45.0995 140.927 45.0995 140.147 45.208C139.551 46.1036 139.562 46.432 139.56 47.4863C139.559 47.7986 139.557 48.1109 139.555 48.4326C139.556 48.7757 139.556 49.1188 139.557 49.4723C139.556 49.8369 139.554 50.2015 139.553 50.5661C139.55 51.3515 139.548 52.137 139.548 52.9224C139.548 54.1645 139.543 55.4066 139.538 56.6487C139.525 59.7343 139.517 62.8198 139.511 65.9054C139.507 68.3026 139.501 70.6997 139.49 73.0969C139.484 74.3315 139.482 75.566 139.482 76.8006C139.482 77.5691 139.478 78.3376 139.474 79.1061C139.472 79.6319 139.473 80.1578 139.475 80.6836C139.473 80.9973 139.47 81.3111 139.468 81.6343C139.467 82.0426 139.467 82.0426 139.466 82.4591C139.318 83.5699 138.866 84.2533 138.035 84.9871C136.96 85.408 136.052 85.3274 134.948 85.0196C134.169 84.4352 133.956 84.1222 133.648 83.1981C133.623 82.629 133.613 82.0591 133.612 81.4895C133.611 81.3151 133.611 81.1407 133.61 80.961C133.608 80.3755 133.607 79.7901 133.607 79.2046C133.606 78.7853 133.604 78.366 133.603 77.9468C133.6 77.0433 133.598 76.1399 133.596 75.2364C133.593 73.8087 133.588 72.3809 133.582 70.9531C133.566 66.8929 133.552 62.8327 133.544 58.7725C133.539 56.5305 133.531 54.2886 133.521 52.0466C133.515 50.8597 133.511 49.6729 133.511 48.4859C133.51 47.3702 133.506 46.2545 133.499 45.1388C133.497 44.7288 133.497 44.3187 133.498 43.9087C133.499 43.35 133.495 42.7916 133.49 42.2329C133.489 41.7635 133.489 41.7635 133.487 41.2846C133.45 40.5276 133.45 40.5276 133.033 40.0322C132.432 39.6243 132.018 39.6526 131.308 39.7436C130.679 40.373 130.726 40.6978 130.718 41.5566C130.719 41.7373 130.72 41.918 130.721 42.1041C130.72 42.2958 130.719 42.4874 130.718 42.6849C130.716 43.3305 130.717 43.9761 130.718 44.6217C130.716 45.0833 130.715 45.5448 130.714 46.0064C130.711 47.0021 130.709 47.9978 130.709 48.9936C130.708 50.568 130.704 52.1424 130.698 53.7169C130.685 57.6286 130.677 61.5403 130.672 65.452C130.668 68.4897 130.662 71.5273 130.65 74.565C130.645 76.13 130.643 77.695 130.643 79.2601C130.643 80.2344 130.639 81.2088 130.635 82.1832C130.633 82.6348 130.633 83.0865 130.634 83.5382C130.636 84.1552 130.633 84.7721 130.628 85.3892C130.63 85.5676 130.632 85.7459 130.633 85.9297C130.618 87.1115 130.363 87.9167 129.748 88.9227C128.986 89.5585 128.529 89.6946 127.538 89.8009C126.564 89.6964 126.089 89.5317 125.329 88.9227C124.773 88.0602 124.744 87.3551 124.743 86.3412C124.742 86.026 124.74 85.7108 124.739 85.386C124.74 85.0376 124.741 84.6891 124.742 84.3406C124.742 83.973 124.741 83.6054 124.739 83.2378C124.737 82.4466 124.737 81.6555 124.737 80.8644C124.738 79.6136 124.734 78.3628 124.73 77.112C124.718 73.5554 124.711 69.9988 124.71 66.4423C124.709 64.4776 124.704 62.5129 124.695 60.5483C124.69 59.3047 124.689 58.0612 124.692 56.8176C124.693 56.0443 124.689 55.271 124.684 54.4976C124.683 54.1389 124.683 53.7801 124.686 53.4214C124.689 52.9319 124.685 52.4423 124.68 51.9528C124.68 51.6787 124.68 51.4047 124.679 51.1224C124.515 50.2311 124.221 49.915 123.509 49.3713C122.822 49.3484 122.822 49.3484 122.209 49.6315C121.568 50.594 121.624 51.0748 121.622 52.2238C121.621 52.4987 121.621 52.4987 121.62 52.7792C121.618 53.177 121.617 53.5748 121.618 53.9727C121.618 54.6027 121.614 55.2327 121.61 55.8627C121.598 57.6539 121.592 59.4451 121.59 61.2363C121.589 62.3323 121.582 63.428 121.573 64.5239C121.57 64.9412 121.57 65.3584 121.571 65.7757C121.573 66.36 121.568 66.9439 121.563 67.5282C121.562 67.8604 121.561 68.1926 121.56 68.5349C121.407 69.5549 121.107 69.983 120.389 70.7082C119.421 71.1925 118.323 71.116 117.269 70.9684C116.466 70.3944 116.065 70.0324 115.813 69.0716C115.699 68.297 115.654 67.5419 115.627 66.7594C115.616 66.4583 115.605 66.1573 115.594 65.8471C115.584 65.5354 115.574 65.2236 115.563 64.9024C115.552 64.5855 115.541 64.2687 115.529 63.9423C115.502 63.1619 115.475 62.3815 115.449 61.601C114.535 61.3567 114.535 61.3567 113.641 61.543C113.482 61.6427 113.322 61.7423 113.158 61.8449C112.016 62.4641 111.283 62.5514 109.99 62.3816C109.194 61.9142 108.802 61.5286 108.332 60.739C108.113 59.7925 108.179 59.1575 108.43 58.2183C109.447 56.9308 110.781 56.1328 112.33 55.6162C112.909 55.5982 113.489 55.5942 114.068 55.6C114.375 55.6023 114.682 55.6047 114.997 55.6071C115.35 55.6116 115.35 55.6116 115.709 55.6162C115.707 55.4616 115.704 55.307 115.701 55.1477C115.69 54.4365 115.684 53.7254 115.677 53.0142C115.673 52.771 115.668 52.5278 115.664 52.2772C115.646 49.7848 116.012 47.5423 117.812 45.6908C119.258 44.3562 120.365 43.6369 122.355 43.4678C122.597 43.4454 122.838 43.4229 123.087 43.3997C123.724 43.3874 124.205 43.4576 124.809 43.6467C124.797 43.3546 124.785 43.0624 124.772 42.7614C124.693 40.0606 124.886 38.3132 126.417 36.0357C129.092 33.4181 132.988 32.891 136.248 34.7997Z" fill="#F7C83E"/>
<path d="M125.424 132.072C126.178 132.459 126.835 132.944 127.509 133.451C127.902 133.735 128.295 134.019 128.688 134.303C128.884 134.446 129.081 134.589 129.283 134.737C130.122 135.343 130.981 135.921 131.843 136.497C133.602 137.682 135.354 138.875 137.105 140.072C137.351 140.239 137.597 140.407 137.85 140.58C138.575 141.076 139.299 141.575 140.022 142.076C140.409 142.341 140.409 142.341 140.805 142.612C141.058 142.789 141.311 142.965 141.572 143.147C141.8 143.304 142.028 143.462 142.262 143.624C143.318 144.473 143.883 145.075 144.078 146.42C144.026 147.263 143.873 147.565 143.427 148.344C142.548 149.067 142.062 149.317 140.933 149.363C139.554 149.14 138.521 148.255 137.415 147.462C137.116 147.26 136.816 147.058 136.516 146.858C134.152 145.281 131.815 143.665 129.472 142.057C128.315 141.265 127.157 140.473 125.993 139.692C125.804 139.565 125.615 139.438 125.421 139.308C125.079 139.079 124.736 138.85 124.393 138.622C121.296 136.547 121.296 136.547 120.992 135.15C121.013 134.009 121.127 133.504 121.872 132.617C123.022 131.701 124.035 131.702 125.424 132.072Z" fill="#F7C83E"/>
<path d="M188.354 69.5992C188.602 69.597 188.849 69.5949 189.104 69.5926C189.372 69.5929 189.64 69.5931 189.917 69.5933C190.344 69.5908 190.344 69.5908 190.78 69.5882C191.722 69.5834 192.663 69.5824 193.604 69.5818C194.259 69.5802 194.914 69.5785 195.568 69.5767C196.94 69.5737 198.313 69.5727 199.685 69.573C201.268 69.5733 202.852 69.568 204.436 69.56C205.962 69.5525 207.489 69.5507 209.015 69.551C209.663 69.5504 210.312 69.5482 210.96 69.5442C211.866 69.5393 212.773 69.5407 213.679 69.5438C214.081 69.5395 214.081 69.5395 214.49 69.5352C216.037 69.5484 216.923 69.6806 218.103 70.6816C218.767 71.6024 218.658 72.366 218.506 73.44C218.306 74.1965 217.97 74.5476 217.321 74.9935C216.574 75.2358 216.103 75.2806 215.328 75.2845C215.079 75.2863 214.83 75.2881 214.574 75.29C214.301 75.2907 214.029 75.2914 213.748 75.2921C213.461 75.2937 213.173 75.2954 212.877 75.2971C211.924 75.3021 210.972 75.3051 210.019 75.3076C209.531 75.3092 209.531 75.3092 209.034 75.3107C207.491 75.3155 205.948 75.3192 204.405 75.3213C202.626 75.3238 200.846 75.3304 199.067 75.3407C197.525 75.3493 195.982 75.3523 194.44 75.3533C193.784 75.3545 193.129 75.3575 192.473 75.3622C191.556 75.3684 190.639 75.3681 189.722 75.3664C189.451 75.3696 189.18 75.3729 188.901 75.3762C187.346 75.3653 186.452 75.24 185.266 74.2326C184.653 73.4189 184.623 72.6863 184.745 71.6962C185.597 70.099 186.536 69.6064 188.354 69.5992Z" fill="#F7C83E"/>
<path d="M184.876 83.4752C185.198 83.4728 185.519 83.4703 185.851 83.4678C186.369 83.4682 186.369 83.4682 186.897 83.4685C187.257 83.4675 187.618 83.4664 187.978 83.4652C188.732 83.4633 189.486 83.4633 190.24 83.4647C191.204 83.4662 192.167 83.4618 193.131 83.4559C193.874 83.4521 194.618 83.4519 195.362 83.4527C195.889 83.4525 196.416 83.4489 196.943 83.4453C197.266 83.4469 197.588 83.4485 197.92 83.4502C198.344 83.4499 198.344 83.4499 198.776 83.4497C199.719 83.5627 200.347 83.8385 201.157 84.3157C201.794 85.1964 201.95 85.6904 201.93 86.7699C201.661 87.7336 201.351 88.2327 200.63 88.9354C199.763 89.2173 199.114 89.228 198.201 89.2334C197.862 89.2359 197.524 89.2383 197.176 89.2409C196.806 89.2421 196.436 89.2432 196.066 89.2442C195.687 89.2457 195.307 89.2471 194.928 89.2486C194.132 89.2513 193.337 89.2528 192.541 89.2537C191.524 89.2551 190.506 89.2613 189.488 89.2686C188.704 89.2734 187.92 89.2747 187.137 89.2751C186.761 89.2759 186.386 89.2779 186.011 89.2813C185.486 89.2857 184.96 89.2847 184.435 89.2835C184.136 89.2845 183.837 89.2854 183.529 89.2864C182.63 89.1807 182.138 88.9381 181.41 88.4221C180.794 87.6496 180.773 86.8102 180.8 85.8466C180.936 85.0232 181.318 84.6131 181.937 84.059C182.942 83.5752 183.761 83.4799 184.876 83.4752Z" fill="#F7C83E"/>
<path d="M213.406 100.21C213.647 100.207 213.889 100.203 214.138 100.2C214.529 100.197 214.529 100.197 214.927 100.194C215.196 100.192 215.465 100.19 215.742 100.188C216.311 100.184 216.879 100.182 217.448 100.18C218.317 100.175 219.185 100.164 220.053 100.153C220.606 100.15 221.159 100.148 221.712 100.146C222.1 100.14 222.1 100.14 222.497 100.133C224.048 100.138 224.921 100.277 226.107 101.277C226.724 102.096 226.754 102.834 226.631 103.831C226.069 104.848 225.638 105.451 224.534 105.874C223.948 105.941 223.948 105.941 223.304 105.944C223.062 105.947 222.819 105.949 222.569 105.951C222.309 105.951 222.049 105.951 221.781 105.951C221.513 105.952 221.244 105.953 220.967 105.954C220.398 105.956 219.83 105.956 219.261 105.955C218.392 105.954 217.524 105.96 216.655 105.966C216.102 105.967 215.55 105.967 214.997 105.967C214.738 105.969 214.478 105.971 214.211 105.974C212.585 105.963 211.644 105.783 210.424 104.677C209.963 103.802 209.909 102.99 210.113 102.043C210.905 100.669 211.83 100.229 213.406 100.21Z" fill="#F7C83E"/>
<path d="M11.459 91.0157C11.8283 91.0135 11.8283 91.0135 12.205 91.0113C12.4747 91.011 12.7443 91.0107 13.0221 91.0104C13.3065 91.0091 13.5908 91.0078 13.8838 91.0065C14.8265 91.0028 15.7692 91.001 16.712 90.9996C17.3662 90.9981 18.0205 90.9967 18.6748 90.9952C19.8721 90.9928 21.0694 90.9912 22.2667 90.9904C24.0273 90.9893 25.7878 90.9848 27.5483 90.9774C29.0745 90.9711 30.6008 90.9692 32.127 90.9687C32.7756 90.9679 33.4243 90.9659 34.0729 90.9625C34.9803 90.9581 35.8876 90.9586 36.7951 90.9603C37.0631 90.9579 37.3312 90.9556 37.6074 90.9531C39.0025 90.9611 40.0261 91.0234 41.2197 91.8213C41.8452 92.6967 42.0002 93.202 42.0002 94.2745C41.6916 95.3205 41.2814 95.7504 40.4392 96.439C39.8174 96.7456 39.4332 96.7292 38.739 96.7316C38.4906 96.7331 38.2422 96.7345 37.9863 96.736C37.7129 96.7363 37.4395 96.7366 37.1578 96.7369C36.8705 96.7382 36.5832 96.7395 36.2873 96.7408C35.3334 96.7445 34.3796 96.7463 33.4258 96.7477C32.7647 96.7492 32.1036 96.7506 31.4425 96.7521C30.2323 96.7545 29.022 96.7561 27.8118 96.7569C26.0311 96.758 24.2504 96.7625 22.4697 96.7699C20.9272 96.7762 19.3848 96.7781 17.8423 96.7786C17.1862 96.7794 16.5301 96.7814 15.874 96.7848C14.9565 96.7892 14.0391 96.7887 13.1216 96.787C12.8498 96.7894 12.5779 96.7917 12.2978 96.7942C10.6605 96.7848 9.71562 96.6208 8.48716 95.4931C8.02974 94.6147 7.97641 93.7986 8.17821 92.8475C8.96808 91.4599 9.88765 91.0213 11.459 91.0157Z" fill="#F7C83E"/>
<path d="M3.54295 103.806C3.71078 103.804 3.87861 103.801 4.05153 103.799C4.60476 103.793 5.15781 103.793 5.71108 103.793C6.09671 103.791 6.48235 103.789 6.86798 103.787C7.67576 103.784 8.48348 103.783 9.29126 103.785C10.325 103.786 11.3585 103.778 12.3922 103.768C13.1885 103.761 13.9848 103.76 14.7811 103.761C15.1622 103.761 15.5432 103.758 15.9242 103.753C16.4579 103.748 16.9909 103.75 17.5245 103.755C17.8277 103.754 18.1309 103.754 18.4432 103.753C19.4937 103.964 19.8782 104.407 20.5521 105.227C20.9502 106.03 20.8715 106.699 20.8119 107.586C20.371 108.587 19.9986 109.031 18.9934 109.421C18.2281 109.493 18.2281 109.493 17.3263 109.502C16.8191 109.508 16.8191 109.508 16.3016 109.514C15.9331 109.516 15.5646 109.517 15.1962 109.519C14.817 109.521 14.4378 109.523 14.0586 109.526C13.2641 109.53 12.4697 109.532 11.6753 109.533C10.6596 109.534 9.64416 109.544 8.62854 109.556C7.84538 109.564 7.06227 109.566 6.27907 109.566C5.90476 109.567 5.53045 109.57 5.15617 109.576C1.86491 109.62 1.86491 109.62 0.841625 108.791C0.0813318 107.855 -0.0759595 107.204 0.0293632 106.013C0.748104 104.295 1.75414 103.819 3.54295 103.806Z" fill="#F7C83E"/>
<path d="M17.0515 119.66C17.3066 119.656 17.5618 119.652 17.8247 119.648C18.2357 119.648 18.2357 119.648 18.655 119.647C18.9381 119.645 19.2212 119.643 19.5128 119.641C20.1112 119.639 20.7096 119.638 21.308 119.639C22.2233 119.639 23.138 119.628 24.0532 119.617C24.6348 119.615 25.2164 119.615 25.7979 119.615C26.0714 119.61 26.3449 119.606 26.6267 119.602C28.5286 119.62 28.5286 119.62 29.537 120.404C30.3033 121.487 30.3879 122.104 30.2774 123.448C29.48 124.903 29.48 124.903 28.7225 125.287C28.3154 125.317 27.9071 125.332 27.4989 125.338C27.1173 125.344 27.1173 125.344 26.7281 125.351C25.563 125.362 24.3979 125.373 23.2327 125.379C22.6184 125.383 22.0041 125.391 21.3898 125.401C20.5041 125.415 19.6188 125.421 18.733 125.425C18.4592 125.431 18.1854 125.436 17.9033 125.443C15.773 125.436 15.773 125.436 14.8166 124.656C14.0843 123.832 13.9616 123.442 13.9062 122.378C13.9952 121.368 14.4719 120.791 15.1955 120.136C15.8714 119.702 16.257 119.668 17.0515 119.66Z" fill="#F7C83E"/>
<path d="M121.511 0.299382C122.377 1.04251 122.726 1.50319 122.898 2.66733C122.942 3.67283 122.945 4.67371 122.932 5.67969C122.932 6.05253 122.932 6.42536 122.932 6.7982C122.932 7.57756 122.927 8.35672 122.919 9.13603C122.909 10.133 122.908 11.1296 122.91 12.1266C122.911 12.8958 122.908 13.6649 122.903 14.434C122.902 14.8015 122.901 15.1691 122.901 15.5366C122.901 16.0507 122.895 16.5648 122.888 17.0788C122.886 17.3708 122.884 17.6628 122.882 17.9637C122.768 18.8574 122.534 19.3496 122.019 20.0701C121.15 20.6846 120.644 20.8609 119.589 20.8609C118.543 20.5451 118.117 20.1604 117.445 19.2793C117.157 18.4154 117.156 17.5871 117.15 16.6783C117.148 16.3668 117.145 16.0554 117.143 15.7345C117.142 15.3989 117.141 15.0633 117.139 14.7176C117.138 14.3718 117.137 14.0259 117.135 13.6696C117.132 12.938 117.131 12.2063 117.13 11.4746C117.129 10.5398 117.122 9.60502 117.115 8.67021C117.109 7.77531 117.109 6.88043 117.108 5.98552C117.105 5.65103 117.101 5.31653 117.098 4.9719C117.099 4.65876 117.1 4.34562 117.1 4.023C117.1 3.74871 117.099 3.47442 117.098 3.19182C117.239 2.00558 117.641 1.12184 118.493 0.315858C119.521 -0.0780447 120.484 -0.125779 121.511 0.299382Z" fill="#F7C83E"/>
<path d="M100.327 5.31453C100.526 5.30484 100.726 5.29514 100.931 5.28516C101.825 5.44249 102.222 5.81311 102.873 6.43275C103.191 7.22989 103.191 7.22989 103.409 8.16681C103.451 8.33646 103.492 8.50612 103.534 8.68091C103.622 9.0424 103.708 9.40433 103.792 9.76666C103.966 10.5011 104.159 11.2302 104.351 11.96C104.544 12.6961 104.73 13.4338 104.916 14.1718C105.011 14.5482 105.108 14.9242 105.205 15.2999C105.35 15.8548 105.49 16.4106 105.629 16.9667C105.712 17.291 105.794 17.6152 105.88 17.9492C106.038 18.954 105.996 19.7057 105.763 20.6942C105.188 21.3639 104.72 21.8569 103.924 22.2499C103.392 22.255 103.392 22.255 102.774 22.2013C102.571 22.187 102.369 22.1726 102.16 22.1578C101.317 21.9236 101.056 21.6371 100.507 20.9535C100.185 20.1369 99.9806 19.2983 99.7723 18.4476C99.7096 18.202 99.6469 17.9563 99.5823 17.7033C99.4507 17.1837 99.321 16.6636 99.1929 16.1431C98.9979 15.3531 98.7958 14.5652 98.5927 13.7772C98.4654 13.2705 98.3384 12.7637 98.2119 12.2568C98.1519 12.0239 98.092 11.791 98.0303 11.551C97.1126 7.76339 97.1126 7.76339 98.1092 6.15725C98.872 5.47106 99.3162 5.34637 100.327 5.31453Z" fill="#F7C83E"/>
<path d="M140.539 5.29564C141.156 5.419 141.156 5.419 141.95 5.93672C142.791 7.23653 142.81 8.51083 142.516 9.98856C142.413 10.4269 142.307 10.8644 142.197 11.301C142.141 11.5351 142.085 11.7692 142.027 12.0104C141.909 12.5026 141.788 12.9945 141.666 13.486C141.481 14.2342 141.301 14.9837 141.122 15.7335C141.005 16.2137 140.888 16.6939 140.771 17.1739C140.718 17.3959 140.664 17.6178 140.609 17.8465C139.787 21.1373 139.787 21.1373 138.644 21.9861C137.572 22.3092 136.771 22.3708 135.711 21.9861C134.928 21.3342 134.486 20.9419 134.344 19.9288C134.351 18.3653 134.614 16.9433 134.993 15.4296C135.053 15.1832 135.114 14.9367 135.176 14.6828C135.303 14.1656 135.432 13.6488 135.562 13.1322C135.76 12.3434 135.95 11.5529 136.139 10.762C136.264 10.2577 136.39 9.75345 136.516 9.24933C136.572 9.01418 136.628 8.77903 136.685 8.53675C137.256 6.33055 138.156 5.16087 140.539 5.29564Z" fill="#F7C83E"/>
<path d="M160.274 13.4582C161.293 14.1288 161.522 14.5855 161.871 15.7559C161.93 16.6563 161.739 17.1806 161.291 17.9551C161.172 18.1611 161.053 18.3672 160.931 18.5795C160.249 19.7088 159.543 20.8207 158.824 21.9268C158.677 22.1556 158.53 22.3844 158.379 22.6202C156.427 25.6369 156.427 25.6369 155.582 26.0626C154.375 26.2083 153.501 26.2297 152.454 25.5702C151.597 24.6528 151.577 23.9758 151.593 22.7558C151.724 21.7042 152.221 20.9776 152.812 20.1214C152.929 19.9445 153.045 19.7676 153.165 19.5854C153.409 19.2157 153.655 18.8475 153.903 18.4808C154.278 17.9233 154.642 17.36 155.005 16.7939C155.235 16.4368 155.465 16.0799 155.696 15.723C155.857 15.4724 155.857 15.4724 156.022 15.2167C157.187 13.4496 158.245 13.1484 160.274 13.4582Z" fill="#F7C83E"/>
<path d="M81.2803 13.3812C81.4819 13.3714 81.6834 13.3616 81.8911 13.3516C83.0353 13.5524 83.6156 14.1859 84.2841 15.0943C84.7736 15.8214 85.2444 16.5575 85.7108 17.2991C85.871 17.5488 86.0312 17.7985 86.1962 18.0557C89.1661 22.7148 89.1661 22.7148 88.8968 24.172C88.4541 25.0846 88.1693 25.4327 87.3038 26.0004C86.6919 26.0973 86.6919 26.0973 86.0095 26.1146C85.6738 26.1303 85.6738 26.1303 85.3312 26.1463C84.1257 25.8885 83.4812 24.9152 82.7891 23.9591C82.6214 23.6974 82.4538 23.4356 82.2811 23.1659C82.0036 22.7356 82.0036 22.7356 81.7205 22.2966C81.5295 21.9967 81.3385 21.6967 81.1475 21.3967C80.9536 21.0946 80.7595 20.7926 80.5652 20.4907C80.2101 19.9383 79.8558 19.3855 79.5025 18.832C79.1889 18.3442 78.8678 17.861 78.5423 17.3808C78.3459 16.1812 78.3805 15.2847 79.0401 14.2464C79.8072 13.5361 80.2507 13.4135 81.2803 13.3812Z" fill="#F7C83E"/>
</svg>
